<?xml version="1.0"?>
<svg xmlns="http://www.w3.org/2000/svg" xmlns:xlink="http://www.w3.org/1999/xlink" xmlns:svgjs="http://svgjs.com/svgjs" version="1.1" width="512" height="512" x="0" y="0" viewBox="0 0 512 512" style="enable-background:new 0 0 512 512" xml:space="preserve" class=""><g><g xmlns="http://www.w3.org/2000/svg"><path d="m497 40h-45v-25c0-8.284-6.716-15-15-15s-15 6.716-15 15v25h-30v-25c0-8.284-6.716-15-15-15s-15 6.716-15 15v25h-30v-25c0-8.284-6.716-15-15-15s-15 6.716-15 15v25h-30v-25c0-8.284-6.716-15-15-15s-15 6.716-15 15v25h-30v-25c0-8.284-6.716-15-15-15s-15 6.716-15 15v25h-30v-25c0-8.284-6.716-15-15-15s-15 6.716-15 15v25h-45c-8.284 0-15 6.716-15 15v239.965c-36.809 19.197-62 57.727-62 102.035 0 63.411 51.589 115 115 115 51.945 0 95.949-34.622 110.167-82h271.833c8.284 0 15-6.716 15-15v-360c0-8.284-6.716-15-15-15zm-382 442c-46.869 0-85-38.131-85-85s38.131-85 85-85 85 38.131 85 85-38.131 85-85 85zm367-82h-252.039c.026-.997.039-1.997.039-3 0-9.297-1.117-18.337-3.209-27h255.209zm0-60h-267.148c-19.841-34.623-57.167-58-99.852-58-7.875 0-15.566.797-23 2.312v-154.312h390zm0-240h-390v-30h390z" fill="#1ea51e" data-original="#000000" style="" class=""/><path d="m137 190h30c8.284 0 15-6.716 15-15s-6.716-15-15-15h-30c-8.284 0-15 6.716-15 15s6.716 15 15 15z" fill="#1ea51e" data-original="#000000" style="" class=""/><path d="m227 190h30c8.284 0 15-6.716 15-15s-6.716-15-15-15h-30c-8.284 0-15 6.716-15 15s6.716 15 15 15z" fill="#1ea51e" data-original="#000000" style="" class=""/><path d="m317 190h30c8.284 0 15-6.716 15-15s-6.716-15-15-15h-30c-8.284 0-15 6.716-15 15s6.716 15 15 15z" fill="#1ea51e" data-original="#000000" style="" class=""/><path d="m137 250h30c8.284 0 15-6.716 15-15s-6.716-15-15-15h-30c-8.284 0-15 6.716-15 15s6.716 15 15 15z" fill="#1ea51e" data-original="#000000" style="" class=""/><path d="m227 250h30c8.284 0 15-6.716 15-15s-6.716-15-15-15h-30c-8.284 0-15 6.716-15 15s6.716 15 15 15z" fill="#1ea51e" data-original="#000000" style="" class=""/><path d="m317 250h30c8.284 0 15-6.716 15-15s-6.716-15-15-15h-30c-8.284 0-15 6.716-15 15s6.716 15 15 15z" fill="#1ea51e" data-original="#000000" style="" class=""/><path d="m317 310h30c8.284 0 15-6.716 15-15s-6.716-15-15-15h-30c-8.284 0-15 6.716-15 15s6.716 15 15 15z" fill="#1ea51e" data-original="#000000" style="" class=""/><path d="m407 190h30c8.284 0 15-6.716 15-15s-6.716-15-15-15h-30c-8.284 0-15 6.716-15 15s6.716 15 15 15z" fill="#1ea51e" data-original="#000000" style="" class=""/><path d="m407 250h30c8.284 0 15-6.716 15-15s-6.716-15-15-15h-30c-8.284 0-15 6.716-15 15s6.716 15 15 15z" fill="#1ea51e" data-original="#000000" style="" class=""/><path d="m407 310h30c8.284 0 15-6.716 15-15s-6.716-15-15-15h-30c-8.284 0-15 6.716-15 15s6.716 15 15 15z" fill="#1ea51e" data-original="#000000" style="" class=""/><path d="m227 310h30c8.284 0 15-6.716 15-15s-6.716-15-15-15h-30c-8.284 0-15 6.716-15 15s6.716 15 15 15z" fill="#1ea51e" data-original="#000000" style="" class=""/><path d="m145 382h-15v-25c0-8.284-6.716-15-15-15s-15 6.716-15 15v40c0 8.284 6.716 15 15 15h30c8.284 0 15-6.716 15-15s-6.716-15-15-15z" fill="#1ea51e" data-original="#000000" style="" class=""/></g></g></svg>
