<?xml version="1.0"?>
<svg xmlns="http://www.w3.org/2000/svg" xmlns:xlink="http://www.w3.org/1999/xlink" xmlns:svgjs="http://svgjs.com/svgjs" version="1.1" width="512" height="512" x="0" y="0" viewBox="0 0 512 512" style="enable-background:new 0 0 512 512" xml:space="preserve"><g><g xmlns="http://www.w3.org/2000/svg"><g><path d="m177.027 40.073c23.19-16.356 50.502-25.002 78.985-25.002 75.653 0 137.201 61.548 137.201 137.201 0 31.454-10.353 61.039-29.939 85.56-2.585 3.236-2.057 7.956 1.18 10.541 1.382 1.104 3.034 1.641 4.676 1.641 2.202 0 4.384-.965 5.866-2.82 21.731-27.206 33.218-60.03 33.218-94.921 0-83.924-68.278-152.202-152.201-152.202-31.596 0-61.898 9.594-87.631 27.744-3.385 2.388-4.194 7.067-1.806 10.452 2.386 3.385 7.067 4.193 10.451 1.806z" fill="#1ea51e" data-original="#000000" style=""/><path d="m256.012 304.474c33.731 0 65.686-10.808 92.409-31.254 3.289-2.517 3.916-7.225 1.398-10.515-2.516-3.289-7.221-3.917-10.514-1.399-24.083 18.427-52.885 28.167-83.293 28.167-75.653 0-137.201-61.548-137.201-137.201 0-32.969 11.865-64.838 33.41-89.734 2.711-3.132 2.369-7.869-.764-10.58-3.132-2.71-7.869-2.368-10.58.764-23.903 27.622-37.067 62.976-37.067 99.55.001 83.925 68.278 152.202 152.202 152.202z" fill="#1ea51e" data-original="#000000" style=""/><path d="m179.004 190.011 30.27 30.27c4.355 4.354 11.441 4.354 15.797-.001l57.669-57.669 15.02 15.02c6.811 6.815 18.536 2.341 19.054-7.298l4.327-80.432c.171-3.163-1.015-6.262-3.254-8.501s-5.335-3.424-8.501-3.257l-80.434 4.327c-9.622.517-14.126 12.227-7.3 19.054l15.02 15.021-57.667 57.668c-4.365 4.363-4.369 11.432-.001 15.798zm70.982-65.567c2.111-2.11 3.273-4.915 3.273-7.9 0-2.984-1.162-5.789-3.272-7.899l-11.657-11.657 67.602-3.637-3.637 67.602-11.657-11.658c-4.356-4.354-11.441-4.354-15.799.001l-57.668 57.669-24.853-24.853z" fill="#1ea51e" data-original="#000000" style=""/><path d="m506.325 362.056c-9.787-14.384-26.406-17.892-44.457-9.394l-130.114 57.29.082-11.256c.126-17.125-15.561-40.265-41.41-43.921-.064-.009-.129-.018-.193-.025l-85.65-9.862c-18.26-2.6-27.151-8.649-44.079-18.549-24.416-14.283-52.239-21.888-80.515-22.042v-4.918c0-12.255-9.97-22.225-22.225-22.225h-35.539c-12.255 0-22.225 9.969-22.225 22.224v180.299c0 12.255 9.97 22.225 22.225 22.225h35.538c12.255 0 22.225-9.97 22.225-22.225v-2.554l77.848 28.976c10.391 3.868 21.281 5.829 32.368 5.829h115.51c17.613 0 34.787-4.983 49.665-14.411l144.629-91.645c.341-.216.664-.459.966-.728 12.321-10.94 14.622-29.465 5.351-43.088zm-14.904 31.5-144.072 91.292c-12.472 7.904-26.87 12.081-41.636 12.081h-115.51c-9.294 0-18.424-1.644-27.135-4.886l-83.081-30.924v-83.493c0-4.142-3.358-7.5-7.5-7.5s-7.5 3.358-7.5 7.5v102.053c0 3.983-3.241 7.224-7.224 7.224h-35.538c-3.983 0-7.224-3.241-7.224-7.224v-180.301c0-3.983 3.241-7.224 7.224-7.224h35.538c3.983 0 7.224 3.241 7.224 7.224v43.183c0 4.142 3.358 7.5 7.5 7.5s7.5-3.358 7.5-7.5v-23.264c25.618.154 50.821 7.05 72.941 19.99 17.737 10.375 28.468 17.47 49.646 20.467.064.009.128.017.193.024l85.648 9.861c15.112 2.179 26.741 14.215 28.417 29.366l-.109 14.98h-80.11c-4.142 0-7.5 3.358-7.5 7.5s3.358 7.5 7.5 7.5h87.556c.949 0 2.032-.205 2.994-.625.009-.004.019-.006.028-.01l140.81-62c.062-.027.123-.055.184-.084 7.891-3.731 18.759-6.026 25.739 4.228 4.937 7.257 3.839 17.069-2.503 23.062z" fill="#1ea51e" data-original="#000000" style=""/></g></g></g></svg>
