<svg id="Capa_1" enable-background="new 0 0 511.895 511.895" height="512" viewBox="0 0 511.895 511.895" width="512" xmlns="http://www.w3.org/2000/svg"><g><path d="m6.533 486.758 18.604 18.604c8.71 8.709 22.882 8.711 31.595 0 9.736-9.737 92.11-92.11 101.639-101.64 5.265-5.265 7.643-12.866 6.027-20.472l20.352-20.352c30.55 23.712 67.475 38.371 106.246 41.838 4.129.374 7.77-2.677 8.138-6.802.369-4.125-2.676-7.769-6.802-8.138-43.801-3.917-84.977-23.247-115.98-54.25-73.182-73.187-73.619-192.009 0-265.627 73.232-73.233 192.394-73.233 265.626 0 73.233 73.233 73.233 192.394 0 265.627-31.075 31.075-72.266 50.341-115.981 54.25-4.126.369-7.171 4.013-6.802 8.138.349 3.899 3.62 6.833 7.461 6.833.224 0 .45-.01.677-.03 47.213-4.222 91.694-25.027 125.253-58.584 79.081-79.082 79.081-207.758 0-286.84-79.084-79.082-207.759-79.082-286.841 0-74.365 74.365-77.75 189.704-16.779 267.866l-20.305 20.306c-7.507-1.596-15.117.672-20.486 6.041l-101.643 101.639c-8.71 8.71-8.709 22.883.001 31.593zm152.122-148.057c4.568 5.045 9.356 9.847 14.546 14.532l-16.862 16.862-14.539-14.539zm-39.876 25.43c2.916-2.916 7.562-2.813 10.372-.008.003.003.006.005.009.008l18.604 18.604c.001.002.003.003.004.005 2.854 2.863 2.857 7.513-.005 10.375l-16.019 16.019-28.984-28.984zm-101.64 101.64 75.014-75.014 28.984 28.984-75.013 75.014c-2.863 2.862-7.52 2.862-10.381 0l-18.604-18.604c-2.861-2.862-2.861-7.519 0-10.38z"/><path d="m378.439 103.059v-14.721c0-4.142-3.357-7.5-7.5-7.5s-7.5 3.358-7.5 7.5v10.429h-108.552v-10.429c0-4.142-3.357-7.5-7.5-7.5s-7.5 3.358-7.5 7.5v14.721c0 39.721 19.866 77.606 54.235 99.955-33.485 21.774-54.235 59.179-54.235 99.955v14.721c0 4.142 3.357 7.5 7.5 7.5s7.5-3.358 7.5-7.5v-10.429h108.552v10.429c0 4.142 3.357 7.5 7.5 7.5s7.5-3.358 7.5-7.5v-14.721c0-39.717-19.862-77.603-54.235-99.954 33.517-21.795 54.235-59.217 54.235-99.956zm-123.007 10.709h107.463c-.573 5.66-1.606 11.204-3.054 16.598h-101.355c-1.448-5.394-2.481-10.938-3.054-16.598zm17.588 48.195c-3.583-5.233-6.691-10.782-9.26-16.598h90.806c-2.569 5.815-5.677 11.365-9.26 16.598zm89.875 130.298h-107.463c.573-5.66 1.606-11.205 3.054-16.598h101.355c1.448 5.393 2.481 10.938 3.054 16.598zm-17.589-48.196c3.583 5.233 6.691 10.782 9.26 16.598h-90.806c2.569-5.815 5.677-11.365 9.26-16.598zm-12.502-15h-47.282c6.9-6.841 14.824-12.783 23.641-17.589 8.818 4.806 16.742 10.748 23.641 17.589zm-23.641-34.512c-8.817-4.806-16.741-10.749-23.641-17.59h47.282c-6.899 6.841-14.824 12.784-23.641 17.59z"/><path d="m458.85 182.023c.563 4.104 4.356 6.965 8.452 6.408 4.104-.564 6.972-4.349 6.407-8.452-4.968-36.122-21.251-68.871-47.087-94.707-64.921-64.921-169.994-64.926-234.92 0-64.767 64.768-64.767 170.152 0 234.918 32.384 32.384 74.922 48.576 117.46 48.576s85.076-16.192 117.46-48.576c27.734-27.735 44.804-64.515 48.062-103.565.345-4.128-2.722-7.753-6.85-8.098-4.128-.333-7.753 2.722-8.098 6.85-2.965 35.521-18.492 68.977-43.723 94.207-58.918 58.919-154.787 58.919-213.705 0-58.919-58.918-58.919-154.786 0-213.706 59.058-59.059 154.643-59.063 213.705 0 23.506 23.504 38.318 53.292 42.837 86.145z"/></g></svg>