<svg xmlns="http://www.w3.org/2000/svg" xmlns:xlink="http://www.w3.org/1999/xlink" width="24" height="22" viewBox="0 0 24 22">
  <defs>
    <clipPath id="clip-Artboard_5">
      <rect width="24" height="22"/>
    </clipPath>
  </defs>
  <g id="Artboard_5" data-name="Artboard – 5" clip-path="url(#clip-Artboard_5)">
    <g id="favourite" transform="translate(3 3)">
      <path id="Shape" d="M3.982,16a.532.532,0,0,1-.16-.024.451.451,0,0,1-.341-.534c.152-.818.31-1.644.463-2.442l.015-.076q.085-.456.173-.911l0-.01c.1-.538.21-1.094.307-1.643a.276.276,0,0,0-.107-.215l-.8-.687-.027-.023L2.4,8.488,14.787,11.16c.133.671.256,1.334.374,1.977.133.72.269,1.462.421,2.211a.464.464,0,0,1-.185.529.543.543,0,0,1-.306.095.792.792,0,0,1-.337-.087l-1.3-.6-.051-.024c-1.213-.559-2.468-1.137-3.7-1.713a.405.405,0,0,0-.165-.04.4.4,0,0,0-.172.044c-.918.433-1.854.87-2.759,1.292l0,0q-1.131.528-2.263,1.059A.822.822,0,0,1,3.982,16ZM15.07,9.788h0l-1.686-4.7c1.229.151,2.478.309,3.686.461l.683.085.692.087a.569.569,0,0,1,.527.331.466.466,0,0,1-.2.538L17.484,7.7l-.018.016c-.785.68-1.594,1.381-2.395,2.071ZM1.711,7.9h0l-.353-.3-.01-.009q-.5-.426-.992-.851A2.717,2.717,0,0,1,.1,6.473C.065,6.436.033,6.4,0,6.366V6.138a.662.662,0,0,1,.595-.374c.336-.043.683-.086,1.023-.133L3.27,5.414h.016l1.673-.219L1.712,7.9Zm3.248-2.7,0,0L7.4,3.164c-.3.544-.574,1.039-.859,1.562a.591.591,0,0,1-.517.332l-1.058.135ZM12.4,4.58l0,0L7.986,2.11l.373-.671q.3-.542.6-1.076A.584.584,0,0,1,9.385.01.735.735,0,0,1,9.5,0a.562.562,0,0,1,.5.328c.438.772.859,1.521,1.253,2.225l.694,1.233.445.791Z" fill="none" stroke="#319b37" stroke-linecap="round" stroke-linejoin="round" stroke-miterlimit="10" stroke-width="0.8"/>
    </g>
  </g>
</svg>
