<svg xmlns="http://www.w3.org/2000/svg" xmlns:xlink="http://www.w3.org/1999/xlink" width="19" height="20" viewBox="0 0 19 20">
  <defs>
    <clipPath id="clip-Artboard_7">
      <rect width="19" height="20"/>
    </clipPath>
  </defs>
  <g id="Artboard_7" data-name="Artboard – 7" clip-path="url(#clip-Artboard_7)">
    <g id="_119-out" data-name="119-out" transform="translate(6.675 2.266)">
      <path id="Path_6398" data-name="Path 6398" d="M118.2,0h-4.984a1.733,1.733,0,0,0-1.723,1.74V4.048a.354.354,0,1,0,.709,0v-2.3A1.022,1.022,0,0,1,113.214.713H118.2a1.024,1.024,0,0,1,1.014,1.031V13.228A1.022,1.022,0,0,1,118.2,14.26h-4.987a1.024,1.024,0,0,1-1.014-1.032v-2.29a.354.354,0,0,0-.709,0v2.29a1.733,1.733,0,0,0,1.723,1.74H118.2a1.733,1.733,0,0,0,1.723-1.74V1.744A1.737,1.737,0,0,0,118.2,0Zm0,0" transform="translate(-111.751)" fill="#F3603F" stroke="#F3603F" stroke-width="0.5"/>
      <path id="Path_6399" data-name="Path 6399" d="M-2.4,198.925H2.47a.354.354,0,1,0,0-.709H-2.4l.819-.968a.354.354,0,0,0-.043-.5.355.355,0,0,0-.5.042l-1.312,1.549-.011.011s-.007.011-.011.014a.018.018,0,0,0-.007.014s-.007.011-.011.014,0,.011-.007.014,0,.01-.007.014,0,.011-.007.014,0,.011-.007.018,0,.011,0,.014,0,.011,0,.018,0,.011,0,.014,0,.014,0,.021v.011a.208.208,0,0,0,0,.067v.011c0,.007,0,.014,0,.021s0,.011,0,.014,0,.011,0,.018,0,.011,0,.014,0,.011.007.018,0,.011.007.014,0,.011.007.014,0,.011.007.014.007.011.011.014,0,.007.007.014.007.011.011.014l.011.011,1.312,1.549a.356.356,0,0,0,.5.038.356.356,0,0,0,.043-.5Zm0,0" transform="translate(0 -191.084)" fill="#F3603F" stroke="#F3603F" stroke-width="0.5"/>
    </g>
  </g>
</svg>
