<svg xmlns="http://www.w3.org/2000/svg" xmlns:xlink="http://www.w3.org/1999/xlink" width="21" height="24" viewBox="0 0 21 24">
  <defs>
    <clipPath id="clip-Artboard_6">
      <rect width="21" height="24"/>
    </clipPath>
  </defs>
  <g id="Artboard_6" data-name="Artboard – 6" clip-path="url(#clip-Artboard_6)">
    <g id="offers" transform="translate(3 3)">
      <path id="Shape" d="M1,2.762a2.77,2.77,0,0,1-.7-.425A.949.949,0,0,1,.03,1.35C.2.5.637,0,1.213,0a1.254,1.254,0,0,1,.661.2,6.478,6.478,0,0,1,2.1,2.4.156.156,0,0,1,0,.187.153.153,0,0,1-.126.112A13.578,13.578,0,0,1,2.47,3,4.125,4.125,0,0,1,1,2.762Z" transform="translate(4 1)" fill="none" stroke="#319b37" stroke-width="1"/>
      <path id="Shape-2" data-name="Shape" d="M.836,2.987c-.158,0-.307-.025-.455-.025H.349a.319.319,0,0,1-.158-.026c-.011-.013-.042,0-.063-.013a.194.194,0,0,1-.117-.1.21.21,0,0,1,.022-.179A6.647,6.647,0,0,1,2.371.09,1,1,0,0,1,3.6.462,1.878,1.878,0,0,1,4,1.654a.977.977,0,0,1-.582.987,5.7,5.7,0,0,1-1.3.333A8.014,8.014,0,0,1,1.291,3C1.143,3,.985,2.987.836,2.987Z" transform="translate(9 1)" fill="none" stroke="#319b37" stroke-width="1"/>
      <path id="Shape-3" data-name="Shape" d="M8.708,18H1.818A1.921,1.921,0,0,1,0,16.166V5.292A1.75,1.75,0,0,1,1.818,3.658H3.265a1.6,1.6,0,0,1-.653-2A2.156,2.156,0,0,1,4.6.011,2.289,2.289,0,0,1,5.4.167,5.656,5.656,0,0,1,7.7,2c.13.167.262.333.382.489a.3.3,0,0,1,.076.089c.066-.089.141-.178.207-.256.272-.334.522-.645.806-.945A3.887,3.887,0,0,1,11.56.011,1.058,1.058,0,0,1,11.744,0a2.3,2.3,0,0,1,2.09,2.09,1.463,1.463,0,0,1-.49,1.268c-.066.055-.141.122-.207.189-.032.033-.065.111-.109.111h1.4A1.547,1.547,0,0,1,16,5.292V16.166A1.706,1.706,0,0,1,14.432,18Z" fill="none" stroke="#319b37" stroke-width="1"/>
    </g>
  </g>
</svg>
