<?xml version="1.0"?>
<svg xmlns="http://www.w3.org/2000/svg" xmlns:xlink="http://www.w3.org/1999/xlink" xmlns:svgjs="http://svgjs.com/svgjs" version="1.1" width="512" height="512" x="0" y="0" viewBox="0 0 512 512" style="enable-background:new 0 0 512 512" xml:space="preserve" class=""><g><g xmlns="http://www.w3.org/2000/svg"><path d="m419.68 163.97v223.03h-371.71v-223.03l185.86-111.51z" fill="#f3603f" data-original="#ffa001" style="" class=""/><path d="m419.68 163.97v223.03h-185.85v-334.54z" fill="#f3603f" data-original="#f87f02" style="" class=""/><path d="m0 163.971 47.968-111.515h185.858l-47.968 111.515z" fill="#ffda2d" data-original="#ffda2d" style=""/><path d="m467.651 163.971-47.968-111.515h-185.857l47.968 111.515z" fill="#fcbe00" data-original="#fcbe00" style=""/><path d="m107.714 293.542h30v30h-30z" fill="#ffda2d" data-original="#ffda2d" style=""/><path d="m512 349.834c0 60.59-49.12 109.71-109.71 109.71-60.6 0-109.72-49.12-109.72-109.71 0-60.6 49.12-109.72 109.72-109.72 60.59 0 109.71 49.119 109.71 109.72z" fill="#ffffff" data-original="#83e470" style="" class=""/><path d="m512 349.834c0 60.59-49.12 109.71-109.71 109.71v-219.43c60.59 0 109.71 49.119 109.71 109.72z" fill="#ffffff" data-original="#01b763" style="" class=""/><path d="m459.7 332.064-57.41 57.409-9.95 9.951-47.47-47.471 21.22-21.21 26.25 26.25 9.95-9.949 36.19-36.19z" fill="#f3603f" data-original="#f3fdff" style="" class=""/><path d="m459.7 332.064-57.41 57.409v-42.429l36.19-36.19z" fill="#f3603f" data-original="#d7f3f7" style="" class=""/></g></g></svg>
