<?xml version="1.0" standalone="no"?>
<!DOCTYPE svg PUBLIC "-//W3C//DTD SVG 20010904//EN"
 "http://www.w3.org/TR/2001/REC-SVG-20010904/DTD/svg10.dtd">
<svg version="1.0" xmlns="http://www.w3.org/2000/svg"
 width="300.000000pt" height="234.000000pt" viewBox="0 0 300.000000 234.000000"
 preserveAspectRatio="xMidYMid meet">
<metadata>
Created by potrace 1.10, written by Peter Selinger 2001-2011
</metadata>
<g transform="translate(0.000000,234.000000) scale(0.100000,-0.100000)"
fill="#000000" stroke="none">
<path d="M118 2317 c-3 -19 -2 -25 4 -19 6 6 8 18 6 28 -3 14 -5 12 -10 -9z"/>
<path d="M300 2336 c0 -9 50 -12 62 -5 8 6 -1 9 -24 9 -21 0 -38 -2 -38 -4z"/>
<path d="M394 2317 c-26 -27 -36 -64 -19 -64 8 0 11 7 7 15 -4 11 -1 13 8 7
10 -6 12 -4 7 8 -3 9 -2 19 3 22 10 6 14 -7 11 -32 -1 -7 3 -13 8 -13 5 0 7
10 4 23 -3 12 -6 30 -6 40 -1 9 -1 17 -2 17 0 0 -9 -10 -21 -23z"/>
<path d="M435 2323 c1 -10 8 -17 14 -15 6 1 11 -4 11 -12 0 -8 5 -18 12 -22 8
-5 9 -2 5 9 -3 10 -2 17 3 17 6 0 10 -7 10 -15 0 -8 6 -12 14 -9 18 7 60 -32
43 -40 -7 -3 -3 -4 8 -3 11 1 20 -2 20 -8 0 -5 6 -20 13 -32 11 -19 9 -24 -8
-33 -18 -10 -24 -7 -21 13 0 4 -4 7 -10 7 -8 0 -8 5 1 15 7 9 8 15 2 15 -5 0
-13 -7 -16 -16 -6 -15 -10 -14 -33 7 -14 13 -22 17 -17 9 16 -28 16 -60 -1
-60 -8 0 -15 5 -15 11 0 5 5 7 10 4 13 -8 13 5 0 25 -8 13 -10 13 -10 -2 0 -9
-8 -25 -17 -34 -16 -16 -16 -17 -1 -12 9 4 21 1 27 -6 9 -11 5 -13 -21 -10
-25 3 -29 1 -20 -8 15 -15 16 -31 0 -22 -7 4 -8 3 -4 -5 4 -6 12 -9 17 -6 5 4
9 -1 9 -9 0 -9 -3 -15 -7 -15 -5 1 -15 1 -23 0 -12 -1 -12 -3 -2 -10 11 -7 10
-9 -3 -14 -20 -8 -31 18 -15 37 9 12 8 20 -6 41 -15 23 -15 28 -3 36 9 6 10 9
2 9 -7 0 -17 -10 -24 -21 -8 -15 -8 -19 0 -15 6 4 11 3 11 -3 0 -15 -18 -23
-25 -11 -10 16 15 81 27 74 7 -4 8 -2 4 4 -3 6 1 15 11 20 12 7 21 4 34 -12
17 -20 18 -20 15 -1 -2 11 1 23 6 26 5 3 -6 6 -24 7 -18 0 -42 -5 -54 -13 -22
-14 -164 -15 -235 0 -32 6 -36 10 -33 33 3 26 3 26 -4 3 -4 -13 -16 -27 -27
-31 -12 -4 28 -12 100 -20 66 -7 128 -16 137 -21 12 -7 20 -4 26 7 8 15 10 15
15 0 4 -10 3 -15 -1 -12 -12 7 -12 -67 0 -81 6 -7 8 -32 5 -56 -6 -48 -1 -60
28 -71 17 -6 16 -4 -5 20 l-25 28 29 -22 c16 -12 35 -22 42 -22 16 0 19 26 4
35 -6 4 -7 -1 -3 -11 6 -15 1 -14 -25 5 -32 22 -43 63 -22 76 5 3 7 13 4 23
-5 14 -4 14 4 2 8 -10 8 -18 1 -27 -15 -17 -1 -53 19 -53 18 0 52 33 52 50 0
6 7 10 15 10 12 0 13 -4 5 -19 -5 -11 -17 -27 -26 -35 -8 -9 -11 -16 -6 -16 5
0 17 12 27 26 9 14 19 23 22 20 3 -3 1 -12 -5 -19 -9 -11 -7 -13 10 -12 12 1
25 11 30 24 5 14 4 20 -2 16 -6 -3 -10 -2 -10 4 0 5 5 13 11 17 6 4 8 21 5 43
-3 20 -2 29 2 21 6 -14 12 -15 40 -11 14 2 34 51 21 51 -6 0 -3 8 6 17 16 16
18 15 36 -8 23 -30 27 -62 3 -33 -13 16 -15 16 -10 2 3 -10 1 -20 -4 -23 -6
-4 -10 0 -10 7 0 7 -6 2 -13 -12 -8 -14 -19 -24 -25 -23 -7 2 -12 -2 -12 -8 0
-6 8 -8 18 -5 16 6 16 5 0 -7 -15 -12 -15 -14 5 -26 14 -9 18 -9 11 -1 -14 14
2 53 29 69 16 10 17 9 11 -15 -6 -24 -4 -26 14 -22 14 4 22 1 25 -11 2 -9 4
13 4 49 0 36 -3 56 -7 46 -4 -14 -9 -16 -14 -8 -4 7 -4 12 1 12 4 0 0 5 -9 11
-10 5 -18 15 -18 20 0 6 4 8 9 4 5 -3 13 0 17 7 5 8 10 6 14 -8 4 -10 7 10 7
46 1 36 -1 57 -4 47 -2 -9 -9 -15 -14 -11 -5 3 -7 9 -4 14 3 4 -2 11 -11 14
-15 6 -15 4 -1 -18 20 -30 10 -42 -12 -15 -16 20 -17 20 -31 3 -14 -17 -14
-18 3 -5 17 13 22 7 18 -21 -1 -8 20 -5 37 5 8 6 12 2 12 -12 0 -25 -19 -38
-30 -21 -6 10 -9 8 -13 -6 -4 -17 -6 -17 -12 4 -4 12 -11 22 -16 22 -12 0 -11
-17 1 -25 6 -4 8 -11 4 -16 -3 -6 -12 -3 -21 8 -13 17 -13 16 -3 -4 13 -28 -1
-30 -18 -3 -9 15 -10 26 -1 41 12 23 4 69 -12 69 -6 0 -6 -7 1 -20 15 -27 -4
-25 -23 3 l-15 22 5 -27 c5 -25 14 -33 35 -29 4 0 5 -5 2 -12 -3 -8 -11 -14
-19 -14 -8 0 -13 3 -10 5 9 9 -16 31 -29 26 -8 -3 -16 2 -19 10 -4 10 -13 13
-23 9 -13 -5 -15 -3 -9 8 4 8 5 11 0 7 -4 -4 -14 -3 -21 3 -9 7 -12 6 -9 -8z
m97 -148 c3 3 3 -16 1 -42 -2 -27 -4 -61 -4 -78 l0 -30 -16 35 c-19 41 -22 86
-5 83 8 -2 9 4 1 24 -8 22 -7 24 4 15 8 -7 16 -10 19 -7z m158 -39 c0 -15 -18
-31 -26 -23 -7 7 7 37 17 37 5 0 9 -6 9 -14z m-211 -37 c-16 -10 -23 -4 -14
10 3 6 11 8 17 5 6 -4 5 -9 -3 -15z"/>
<path d="M510 2103 c0 -21 3 -24 9 -14 5 8 7 20 4 28 -8 21 -13 15 -13 -14z"/>
<path d="M490 2336 c0 -2 7 -6 15 -10 8 -3 15 -1 15 4 0 6 -7 10 -15 10 -8 0
-15 -2 -15 -4z"/>
<path d="M601 2324 c0 -11 3 -14 6 -6 3 7 2 16 -1 19 -3 4 -6 -2 -5 -13z"/>
<path d="M726 2327 c3 -10 9 -15 12 -12 3 3 0 11 -7 18 -10 9 -11 8 -5 -6z"/>
<path d="M761 2120 c-1 -124 -4 -243 -5 -265 -2 -22 -4 -55 -5 -73 -1 -29 -4
-33 -23 -27 -22 6 -22 5 -3 -7 21 -14 26 -38 10 -50 -6 -5 -5 -8 2 -8 7 0 10
-7 7 -15 -3 -8 1 -27 9 -42 69 -131 87 -162 87 -145 0 11 -18 51 -39 89 -37
66 -39 73 -35 139 2 38 4 101 5 139 1 53 3 63 9 40 l8 -30 1 32 c0 17 -3 35
-9 38 -5 3 -10 16 -9 28 0 21 1 21 8 2 13 -33 21 46 21 218 0 98 -4 157 -10
157 -6 0 -11 -67 -12 -177 l-2 -178 -6 180 -6 180 -3 -225z"/>
<path d="M1010 2316 c0 -15 -7 -26 -17 -29 -17 -4 -17 -5 0 -6 9 0 17 -8 17
-17 0 -8 5 -12 10 -9 6 3 10 24 10 46 0 21 -4 39 -10 39 -5 0 -10 -11 -10 -24z"/>
<path d="M1100 2290 l0 -50 -57 0 c-32 -1 -69 -7 -83 -15 -14 -8 -27 -14 -30
-15 -3 0 -3 25 -2 55 4 53 3 55 -21 55 -13 0 -39 3 -56 6 l-31 7 0 -62 0 -61
33 -1 32 -1 -30 -7 c-23 -5 -30 -12 -30 -30 0 -14 7 -26 15 -29 12 -4 13 -2 3
9 -22 22 -15 39 16 39 17 0 33 5 36 10 3 6 12 10 18 10 7 -1 0 -11 -14 -23
-51 -42 -69 -93 -68 -187 l2 -85 8 70 c13 100 34 157 74 195 30 29 43 34 92
38 49 3 64 0 93 -20 37 -25 80 -82 80 -106 0 -9 -6 -6 -20 9 -10 13 -19 18
-20 12 0 -7 4 -13 9 -13 12 0 29 -78 35 -165 l6 -70 -23 45 c-47 95 -78 137
-116 158 -45 26 -81 29 -81 7 0 -8 -5 -15 -11 -15 -5 0 -7 5 -3 12 5 7 3 8 -5
3 -9 -5 -10 -10 -2 -18 7 -7 16 -6 29 6 18 16 21 15 65 -14 60 -40 65 -49 28
-49 -46 0 -37 -18 11 -22 23 -2 43 -9 46 -16 3 -9 -3 -11 -20 -7 -13 3 -34 2
-46 -2 -21 -8 -21 -10 -6 -31 15 -21 42 -32 29 -12 -11 18 51 11 67 -7 39 -46
24 -100 -50 -175 -25 -27 -41 -48 -36 -48 6 0 34 24 62 54 58 61 83 127 81
215 -2 52 -2 54 -10 21 -6 -26 -7 -18 -4 30 6 78 -7 129 -41 170 -14 16 -20
30 -14 30 16 0 56 -42 74 -78 24 -49 45 -175 49 -307 l4 -130 -18 40 c-14 33
-21 33 -19 0 1 -3 -6 -13 -15 -22 -9 -8 -14 -22 -11 -29 4 -11 -8 -26 -24 -30
-3 0 -12 -3 -20 -7 -8 -3 -28 -10 -45 -16 -30 -11 -30 -11 7 -7 21 3 41 0 44
-6 5 -7 2 -8 -6 -3 -9 5 -11 4 -6 -4 6 -9 -24 -65 -44 -81 -4 -3 -9 -12 -13
-21 -3 -10 -30 -25 -59 -34 -29 -10 -59 -20 -67 -23 -9 -3 -12 -1 -7 6 5 8 2
10 -9 6 -20 -8 -65 4 -65 17 0 6 5 7 10 4 6 -3 10 -2 10 4 0 5 -5 13 -10 16
-8 5 -7 11 1 21 9 11 9 17 -1 29 -7 8 -10 15 -7 15 14 0 77 -34 77 -42 0 -4 7
-5 16 -1 13 5 4 13 -32 31 -27 14 -54 32 -61 41 -9 12 -12 13 -13 2 0 -11 -3
-11 -16 -1 -8 8 -20 22 -25 32 -10 19 -9 19 15 3 14 -9 29 -14 35 -11 5 4 12
-3 16 -14 4 -11 11 -18 16 -15 5 4 9 1 9 -4 0 -6 3 -10 8 -10 14 3 92 -34 92
-43 0 -14 -42 -47 -60 -48 -13 0 -13 -2 0 -9 8 -6 19 -7 25 -3 5 3 18 8 28 9
25 4 75 32 59 33 -7 0 -22 -5 -34 -11 -40 -22 -28 0 14 25 24 14 55 38 69 52
l24 27 -45 -6 c-25 -3 -55 -9 -65 -12 -11 -3 -6 1 10 10 l30 14 -32 -1 c-17
-1 -29 -6 -26 -12 10 -15 -69 2 -86 18 -13 14 -11 15 21 10 46 -8 183 23 211
48 21 18 20 18 -20 -2 -23 -11 -52 -20 -64 -20 -13 0 -38 -5 -56 -12 -24 -9
-44 -9 -73 -2 -22 6 -37 8 -35 4 8 -13 -22 -19 -34 -7 -17 17 -13 31 4 17 24
-20 18 -4 -18 47 -37 52 -63 110 -54 119 3 3 15 -12 26 -34 11 -21 36 -56 55
-76 20 -20 32 -36 28 -36 -4 0 0 -4 8 -10 8 -5 40 -7 70 -5 143 9 210 56 227
159 3 18 1 26 -6 21 -6 -3 -11 -13 -11 -21 0 -21 -30 -76 -49 -92 -47 -37 -65
-44 -130 -47 -39 -3 -70 0 -68 4 1 5 -15 30 -36 55 -42 51 -57 84 -57 126 0
45 10 60 40 60 16 0 30 6 33 13 2 6 7 9 11 6 4 -4 0 -14 -9 -23 -20 -19 -6
-21 20 -2 26 19 13 46 -24 46 -31 0 -49 -14 -31 -23 6 -3 5 -4 -2 -3 -7 2 -13
11 -13 22 0 15 8 20 43 22 44 3 50 22 6 22 -26 0 -31 9 -14 26 7 7 6 11 -5 11
-8 0 -15 -8 -15 -17 0 -9 -4 -20 -10 -26 -5 -5 -19 -36 -30 -69 l-20 -60 6 90
c8 109 -5 107 -17 -2 -8 -71 -7 -81 17 -133 14 -30 44 -74 67 -97 51 -53 35
-57 -18 -5 -57 56 -86 127 -95 235 -8 85 -8 81 -5 -43 4 -152 5 -158 26 -191
31 -48 32 -54 5 -29 -38 34 -55 70 -50 105 4 29 4 29 -7 -3 -8 -28 -7 -39 10
-66 11 -18 30 -41 42 -52 11 -10 26 -27 31 -38 19 -36 -44 21 -74 67 -15 23
-28 35 -28 26 0 -9 8 -27 19 -40 10 -13 26 -40 36 -59 10 -19 28 -48 41 -63
29 -35 32 -57 4 -32 -26 23 -26 10 0 -23 14 -17 17 -29 10 -36 -14 -14 -12
-37 6 -57 14 -16 21 -15 112 16 86 30 94 31 70 12 -15 -12 -57 -30 -94 -40
-59 -15 -70 -16 -89 -3 -21 14 -22 13 -19 -12 2 -15 -2 -6 -9 19 -7 25 -16 44
-22 43 -5 -2 -28 33 -50 76 -22 44 -43 80 -47 80 -11 0 -12 1 29 -75 25 -47
39 -89 43 -127 5 -53 -1 -74 -13 -48 -3 6 -4 5 -3 -2 1 -7 11 -15 21 -17 16
-3 17 2 11 48 -4 33 -3 51 4 51 5 0 10 -21 10 -46 0 -25 4 -43 9 -40 17 11
184 57 188 52 10 -10 -107 -50 -215 -73 -28 -7 -51 12 -45 36 2 10 -12 52 -33
92 -38 74 -48 109 -34 119 14 9 22 50 10 50 -6 0 -8 -4 -5 -10 6 -10 -7 -14
-32 -11 -7 1 -13 -4 -13 -11 0 -9 -3 -9 -11 2 -10 13 -10 13 -6 -1 4 -12 -2
-16 -24 -16 -16 0 -29 5 -29 11 0 6 -5 5 -12 -2 -15 -15 -32 -16 -22 -1 5 8 1
8 -14 0 -25 -13 -32 -14 -32 -3 0 5 10 13 22 19 15 6 18 12 10 17 -7 4 -12 3
-12 -2 0 -4 -17 -7 -37 -5 -25 1 -33 -1 -24 -6 11 -7 10 -11 -7 -20 -27 -15
-32 -14 -32 5 0 8 5 12 10 9 18 -11 10 10 -10 28 -22 19 -35 22 -25 7 5 -9
-15 -15 -37 -11 -5 0 -8 -9 -8 -22 0 -14 9 -26 25 -34 14 -6 23 -7 20 -3 -3 4
11 8 29 7 21 -1 32 -5 29 -11 -3 -6 0 -5 8 2 7 6 20 12 29 12 13 0 13 -2 0
-11 -12 -8 -11 -9 6 -4 13 3 26 -1 34 -10 7 -8 20 -15 29 -15 9 0 23 -6 30
-12 11 -11 12 -10 6 1 -5 9 -3 12 6 9 8 -3 13 -10 12 -15 -1 -5 7 -9 18 -9 19
0 18 1 -3 18 l-23 18 30 -11 c17 -6 32 -11 35 -12 11 -4 78 -160 74 -172 -3
-7 4 -20 16 -28 18 -12 29 -12 97 4 42 10 90 23 105 28 28 10 39 -1 16 -16 -7
-4 -18 -17 -24 -28 -7 -13 -29 -24 -65 -32 l-54 -11 51 -1 c40 -1 55 4 70 20
22 25 136 105 145 102 4 -1 26 21 50 50 24 29 34 44 23 35 -31 -27 -41 -22
-15 6 21 22 61 32 61 15 0 -13 -201 -209 -253 -247 -71 -52 -132 -77 -178 -73
-17 1 -103 71 -95 78 2 3 36 -11 74 -30 39 -20 73 -33 76 -30 3 4 -35 25 -85
48 -51 23 -96 50 -102 60 -12 23 -20 115 -10 115 7 0 41 -50 52 -75 2 -5 -8 1
-23 14 -14 14 -26 20 -26 14 0 -5 11 -20 24 -32 20 -19 24 -20 29 -7 8 21 -2
45 -30 76 -13 14 -22 32 -19 40 20 65 20 63 -3 49 -22 -15 -37 -41 -70 -129
-12 -30 -25 -61 -29 -67 -5 -8 -49 -17 -108 -22 l-99 -10 98 4 c53 3 97 1 97
-3 0 -5 -20 -87 -44 -183 -52 -211 -70 -304 -62 -325 3 -8 1 -24 -4 -34 -8
-15 -4 -23 20 -40 19 -13 32 -33 36 -55 3 -19 12 -39 20 -46 14 -12 10 -55 -7
-73 -5 -6 -9 -23 -9 -39 0 -26 2 -27 15 -13 9 8 32 18 53 22 20 3 70 18 110
32 65 22 73 28 68 46 -3 12 -6 27 -6 34 0 7 -14 12 -34 12 -55 0 -86 17 -101
54 -15 34 -13 50 7 93 16 33 36 36 92 14 28 -10 77 -24 109 -31 56 -11 57 -12
57 -46 0 -20 5 -34 13 -34 9 0 9 -2 -1 -9 -11 -6 -12 -23 -6 -67 l7 -59 -26
31 c-16 19 -43 36 -67 42 -39 10 -40 9 -34 -11 9 -29 24 -38 52 -32 18 4 22 1
23 -17 1 -22 1 -22 10 2 8 24 8 24 6 -5 0 -16 7 -45 16 -64 9 -19 17 -40 17
-48 0 -12 -26 -18 -59 -14 -7 2 -44 -7 -81 -18 -57 -18 -79 -31 -136 -86 -72
-68 -84 -75 -84 -50 0 8 -9 20 -19 27 -10 6 -17 17 -14 24 2 6 -11 24 -29 39
-23 19 -29 28 -19 32 7 3 20 14 29 24 9 10 19 16 24 13 4 -3 8 0 8 6 0 7 7 9
16 6 8 -3 13 -2 10 3 -3 5 1 12 10 15 9 4 15 9 12 11 -2 3 -23 -4 -46 -15 -22
-11 -46 -20 -52 -20 -6 0 -19 -15 -30 -32 -22 -36 -26 -53 -9 -43 13 9 48 -23
60 -52 5 -13 15 -23 22 -23 11 0 16 -28 21 -120 7 -123 12 -150 27 -150 9 0 8
27 -6 132 -7 53 0 117 11 105 5 -5 21 9 96 80 36 34 121 69 141 56 6 -3 7 -1
3 5 -5 8 7 11 39 10 30 -2 49 2 54 11 5 7 13 11 18 8 16 -10 8 28 -11 57 -16
25 -16 30 -3 50 14 21 16 110 3 171 -3 11 -5 25 -5 32 -1 17 -31 44 -42 38 -5
-4 -9 -2 -9 3 0 5 -11 7 -24 5 -13 -3 -27 0 -30 6 -4 5 -13 8 -21 4 -8 -3 -15
-1 -15 4 0 5 -8 10 -17 11 -10 1 -35 4 -56 8 -31 5 -42 2 -58 -14 -10 -12 -19
-27 -19 -34 0 -7 -18 -29 -40 -49 -35 -32 -46 -34 -41 -6 1 5 -3 5 -9 2 -6 -4
-17 1 -24 10 -13 19 -9 75 6 75 5 0 6 5 3 10 -4 6 -11 8 -16 5 -5 -4 -9 -1 -9
4 0 6 4 11 10 11 5 0 9 3 8 8 -1 4 2 33 6 64 5 32 8 61 8 65 0 5 4 16 10 27 5
10 14 45 18 79 5 33 13 63 18 66 5 3 11 36 14 72 5 60 30 128 51 137 4 2 7 15
7 28 0 13 4 24 9 24 5 0 7 10 5 23 -4 20 -4 20 4 2 5 -11 6 -30 1 -43 -6 -16
-5 -24 5 -28 8 -3 17 -16 20 -28 3 -13 30 -48 60 -77 70 -70 81 -78 116 -91
17 -5 30 -15 30 -21 0 -7 7 -20 14 -30 12 -15 18 -17 35 -7 17 8 22 8 27 -3 3
-9 13 -13 25 -10 10 3 16 9 13 14 -8 13 10 11 24 -3 9 -9 18 -7 39 9 34 24 39
45 18 66 -11 11 -25 14 -45 10 -19 -3 -30 -1 -30 6 0 21 -15 11 -38 -25 -16
-24 -28 -34 -39 -30 -13 5 -14 4 -4 -8 7 -8 8 -17 3 -20 -12 -7 -25 40 -16 55
4 7 10 7 18 0 9 -8 19 -3 35 19 26 35 23 36 -29 10 -43 -22 -75 -26 -85 -10
-4 6 5 10 20 10 43 0 105 38 208 127 53 47 97 88 97 92 0 3 32 39 70 80 72 75
85 99 35 59 -26 -20 -28 -20 -22 -4 5 12 1 26 -9 38 -16 17 -16 19 0 31 11 8
15 19 10 30 -9 25 -22 21 -29 -11 -3 -16 -19 -39 -35 -51 -35 -26 -35 -26 -10
23 30 60 50 78 68 63 13 -10 14 -9 8 1 -5 8 0 19 13 30 16 14 28 57 22 82 -1
3 -3 43 -5 90 l-4 85 24 -70 c28 -86 29 -96 7 -88 -15 6 -16 5 -3 -9 9 -9 17
-12 21 -6 4 6 14 0 24 -13 l17 -24 -7 30 c-3 16 -10 32 -15 35 -5 3 -8 12 -8
20 3 41 -3 71 -12 65 -6 -3 -7 1 -4 10 4 8 2 21 -4 28 -5 6 -16 39 -25 73 -32
128 -93 215 -167 239 -11 4 -16 12 -13 23 3 14 12 17 37 14 32 -4 33 -3 34 37
1 24 -3 41 -9 41 -7 0 -10 -14 -7 -35 4 -34 2 -36 -21 -33 -23 3 -26 7 -23 36
2 18 -1 32 -7 32 -6 0 -11 -21 -11 -50z m-254 21 c-3 -4 6 -6 20 -3 31 6 44
-10 44 -55 0 -38 -5 -42 -47 -36 -32 5 -33 7 -33 54 0 28 5 49 11 49 5 0 8 -4
5 -9z m270 -96 c10 -8 15 -14 9 -14 -5 0 -19 6 -29 14 -11 8 -15 15 -10 15 6
0 19 -7 30 -15z m71 -177 c-3 -7 -5 -2 -5 12 0 14 2 19 5 13 2 -7 2 -19 0 -25z
m39 -365 c-10 -10 -19 5 -10 18 6 11 8 11 12 0 2 -7 1 -15 -2 -18z m-792 -64
c-3 -5 -10 -6 -16 -3 -6 4 -8 2 -4 -4 10 -17 -10 -23 -24 -7 -10 12 -8 16 11
24 26 10 43 5 33 -10z m596 -35 c36 -5 41 -8 25 -15 -29 -11 -47 -11 -40 1 3
6 -4 10 -17 10 -22 0 -88 34 -88 45 0 2 17 -4 38 -14 20 -11 57 -23 82 -27z
m-510 31 c0 -2 -10 -10 -22 -16 -21 -11 -22 -11 -9 4 13 16 31 23 31 12z m167
-24 c-1 -14 -8 -18 -29 -17 -15 1 -28 -1 -28 -6 0 -13 -53 -9 -73 6 -15 12 -9
13 44 11 41 -2 64 2 72 11 16 17 16 17 14 -5z m433 -5 c0 -5 -65 -46 -74 -46
-3 0 -6 5 -6 10 0 6 9 10 19 10 10 0 21 7 25 15 5 13 36 22 36 11z m110 -26
c6 -11 7 -19 2 -18 -9 3 -142 -101 -142 -109 0 -6 22 7 43 25 9 8 20 13 23 9
3 -3 -3 -13 -15 -23 -11 -10 -17 -22 -14 -27 3 -6 1 -7 -5 -3 -5 3 -32 -10
-59 -30 l-48 -36 40 41 c21 22 35 41 31 41 -5 0 -1 11 8 25 9 14 13 25 9 25
-4 0 5 13 20 28 15 16 25 31 22 35 -3 4 -2 5 1 2 4 -2 18 5 32 15 31 25 39 25
52 0z m-316 -122 c-3 -5 -12 -4 -20 3 -19 16 -18 18 6 12 11 -3 17 -9 14 -15z
m46 8 c0 -2 -7 -7 -16 -10 -8 -3 -12 -2 -9 4 6 10 25 14 25 6z m93 -306 c-6
-22 -36 -43 -47 -33 -13 13 -6 35 10 29 9 -4 13 -2 8 5 -7 12 15 31 27 23 4
-2 5 -13 2 -24z m-67 3 c0 -10 -7 -22 -14 -26 -7 -5 -10 -12 -7 -18 4 -5 1 -9
-5 -9 -20 0 -23 30 -5 50 22 25 33 25 31 3z m-389 -483 c-2 -24 -7 -25 -32 -6
-11 8 -16 19 -12 30 9 23 46 3 44 -24z m-40 -21 c6 -6 21 -12 34 -15 102 -18
138 -29 142 -45 3 -12 -3 -19 -21 -24 -14 -3 -42 -13 -61 -22 -49 -22 -71 -25
-71 -11 0 6 -3 8 -7 5 -3 -4 -12 -2 -20 4 -10 9 -11 15 -1 26 9 11 9 19 -1 35
-10 16 -10 19 1 13 8 -4 7 -1 -2 7 -17 15 -24 38 -12 38 4 0 13 -5 19 -11z"/>
<path d="M850 2278 c0 -9 9 -20 20 -23 11 -4 17 -11 14 -17 -4 -7 -2 -8 4 -4
18 11 14 43 -4 50 -14 5 -15 4 -4 -9 8 -9 9 -15 2 -15 -6 0 -16 8 -21 18 -9
15 -10 16 -11 0z"/>
<path d="M1161 1519 c-50 -40 -73 -67 -28 -35 12 9 37 26 55 37 17 12 32 25
32 30 0 14 -4 12 -59 -32z"/>
<path d="M1234 2326 c-3 -7 -4 -33 -2 -57 3 -43 4 -42 8 14 5 58 4 68 -6 43z"/>
<path d="M1366 2318 c-3 -13 -6 -51 -6 -85 0 -46 -3 -61 -12 -58 -10 4 -14
-21 -16 -101 -2 -58 1 -104 5 -101 5 3 8 26 6 51 -1 25 2 46 7 46 6 0 10 -56
10 -142 0 -78 2 -139 4 -137 5 5 17 549 12 549 -2 0 -6 -10 -10 -22z m-6 -198
c0 -22 -3 -40 -8 -40 -4 0 -6 18 -4 40 2 22 6 40 8 40 2 0 4 -18 4 -40z"/>
<path d="M1422 2315 c0 -16 2 -22 5 -12 2 9 2 23 0 30 -3 6 -5 -1 -5 -18z"/>
<path d="M1514 2248 c0 -51 1 -82 4 -68 2 14 8 30 14 35 7 7 8 3 4 -12 -6 -18
-3 -22 14 -20 11 1 20 5 20 10 0 5 -6 7 -13 4 -8 -3 -13 3 -13 14 0 11 4 19 8
19 4 0 5 7 2 15 -4 8 -12 15 -20 15 -8 0 -14 5 -14 11 0 5 4 8 9 5 10 -7 9 20
-1 30 -4 3 -4 12 -1 20 3 8 1 14 -4 14 -5 0 -9 -42 -9 -92z m18 -20 c-7 -7
-12 -8 -12 -2 0 6 3 14 7 17 3 4 9 5 12 2 2 -3 -1 -11 -7 -17z"/>
<path d="M1536 2325 c-3 -9 -2 -14 2 -11 4 2 14 -1 22 -7 18 -14 26 -62 9 -51
-8 4 -7 0 1 -15 6 -12 15 -19 19 -16 5 3 12 -2 15 -11 9 -22 8 -24 -9 -18 -8
4 -15 1 -15 -7 0 -7 3 -9 7 -6 3 4 12 -1 20 -11 11 -13 13 -14 12 -2 -3 32 1
39 18 33 15 -6 16 -5 3 9 -9 9 -18 12 -21 6 -4 -5 -9 -4 -12 4 -6 17 24 20 35
4 4 -6 6 -1 6 10 -2 16 -7 20 -23 16 -11 -3 -26 -9 -32 -15 -7 -5 -13 -6 -13
-1 0 15 17 36 26 34 5 -1 10 4 12 12 3 10 1 10 -6 -1 -8 -11 -11 -9 -18 10 -4
13 -7 29 -6 35 1 6 -5 11 -13 11 -10 0 -14 -6 -10 -16 4 -12 2 -12 -9 2 -12
16 -14 16 -20 2z"/>
<path d="M1604 2317 c0 -17 1 -17 13 -1 14 19 17 11 14 -31 -2 -15 0 -17 7 -6
8 11 11 9 17 -9 4 -13 10 -18 14 -12 4 6 12 7 20 3 17 -11 5 -32 -14 -25 -11
5 -14 -2 -12 -25 2 -25 5 -30 21 -25 12 4 16 2 12 -5 -4 -6 -2 -11 3 -11 6 0
11 -5 11 -11 0 -5 -4 -7 -10 -4 -5 3 -7 0 -4 -8 3 -8 -2 -17 -11 -21 -9 -3
-13 -11 -9 -17 4 -7 3 -9 -2 -6 -6 3 -15 -3 -22 -14 -7 -11 -8 -19 -2 -19 5 0
10 6 10 13 0 8 3 7 10 -3 5 -8 15 -15 21 -15 7 0 14 -6 17 -14 3 -8 0 -11 -7
-7 -7 5 -9 1 -4 -10 5 -12 3 -15 -6 -9 -10 6 -11 3 -1 -14 6 -12 15 -19 20
-16 4 3 11 -1 14 -7 3 -7 4 8 3 34 -1 25 -5 44 -10 41 -9 -6 -22 26 -13 35 4
3 11 0 16 -8 8 -12 10 -12 10 4 0 13 -5 17 -20 13 -11 -3 -20 -1 -20 4 0 5 4
9 9 9 5 0 12 8 14 18 4 16 5 16 6 0 1 -22 17 -23 25 -2 3 8 2 12 -4 9 -13 -8
-33 33 -25 53 5 14 8 14 15 3 4 -8 6 -21 3 -30 -4 -13 -3 -14 5 -2 6 8 7 22 3
30 -5 9 -6 21 -4 28 2 6 -3 23 -12 37 -9 14 -14 30 -10 37 6 8 10 7 16 -2 6
-10 8 -6 7 13 -1 15 -7 24 -13 20 -18 -11 -35 -11 -35 1 0 7 -5 5 -10 -3 -5
-8 -10 -10 -10 -5 0 6 -15 11 -33 11 -25 0 -33 -5 -33 -19z m64 -24 l0 -26
-14 24 c-17 31 -17 40 0 33 7 -3 14 -17 14 -31z m34 13 c3 5 3 3 1 -4 -2 -8 4
-27 14 -42 13 -23 14 -32 4 -43 -14 -18 -43 -16 -49 4 -2 9 0 10 5 3 5 -7 13
-5 24 6 14 14 14 20 2 35 -7 11 -13 15 -13 9 0 -5 -4 -3 -9 5 -5 8 -7 21 -4
28 4 11 8 12 13 3 4 -7 10 -8 12 -4z m14 -292 c-4 -9 -9 -15 -11 -12 -3 3 -3
13 1 22 4 9 9 15 11 12 3 -3 3 -13 -1 -22z"/>
<path d="M1776 2321 c-3 -9 -8 -140 -11 -291 -3 -151 -8 -301 -10 -332 -3 -31
0 -60 5 -63 6 -3 10 -15 10 -26 0 -11 -4 -18 -9 -15 -5 4 -12 0 -14 -6 -6 -15
-10 14 -8 52 2 20 0 22 -8 10 -9 -12 -11 -13 -11 -1 0 8 -3 11 -6 8 -4 -4 -1
-13 6 -22 9 -11 9 -15 1 -15 -7 0 -9 -5 -5 -12 5 -8 -1 -10 -22 -6 -16 3 -38
2 -49 -2 -14 -5 -5 -8 28 -8 63 0 77 -18 75 -93 l-1 -56 -54 -2 c-38 -1 -53 1
-48 9 4 6 1 18 -6 26 -10 13 -8 13 15 5 31 -13 34 -6 4 10 -18 9 -24 8 -34 -6
-11 -15 -13 -14 -12 14 1 19 5 28 12 24 6 -4 5 1 -2 10 -12 14 -11 16 6 14 11
0 18 -6 15 -13 -2 -7 1 -15 7 -19 6 -3 10 -3 9 2 -3 18 2 33 10 33 6 0 9 -12
8 -26 -2 -22 3 -28 26 -31 23 -3 27 0 27 22 0 15 -4 24 -10 20 -5 -3 -6 -13
-3 -22 6 -15 5 -16 -9 -3 -16 15 -8 31 22 42 8 3 -19 6 -62 6 l-76 0 -4 -46
c-3 -37 0 -46 14 -50 14 -3 18 -15 18 -53 0 -40 3 -49 18 -49 11 0 13 3 6 8
-7 4 -12 19 -12 34 0 26 2 27 67 30 36 2 92 1 124 -2 31 -3 57 -3 57 1 0 4 14
3 32 -2 39 -11 48 -4 23 19 -10 9 -15 11 -11 5 9 -16 7 -16 -32 -2 -26 9 -31
15 -27 32 3 12 7 83 9 158 2 75 7 142 10 148 4 6 2 11 -4 11 -7 0 -8 6 -2 16
5 9 7 25 5 35 -5 18 11 25 40 20 5 -1 6 3 3 8 -3 5 -15 7 -27 4 -17 -5 -20 -2
-17 13 2 15 13 20 56 22 52 3 56 7 52 46 -1 11 3 15 9 12 6 -4 11 0 11 8 0 10
-9 16 -21 16 -21 0 -21 2 -14 170 5 111 4 170 -2 170 -11 0 -13 -37 -16 -227
-1 -105 -2 -112 -21 -116 -16 -3 -15 -5 5 -6 18 -1 28 -8 32 -23 9 -32 1 -38
-49 -38 -44 0 -44 0 -44 35 0 19 -3 35 -7 35 -5 0 -9 -80 -11 -178 -1 -97 -5
-221 -8 -274 l-6 -98 -36 0 -35 0 6 122 c4 66 8 158 9 202 l2 81 6 -80 c4 -44
6 24 4 150 -2 139 0 220 5 205 8 -23 9 -23 10 10 2 86 -12 197 -25 197 -8 0
-16 -7 -18 -16z m11 -268 c-2 -37 -3 -9 -3 62 0 72 1 102 3 68 2 -34 2 -93 0
-130z m-10 -190 c-3 -10 -5 -4 -5 12 0 17 2 24 5 18 2 -7 2 -21 0 -30z m20 5
c-3 -7 -5 -2 -5 12 0 14 2 19 5 13 2 -7 2 -19 0 -25z m-20 -170 c-2 -29 -3 -8
-3 47 0 55 1 79 3 53 2 -26 2 -71 0 -100z m-10 -210 c-2 -18 -4 -4 -4 32 0 36
2 50 4 33 2 -18 2 -48 0 -65z"/>
<path d="M1897 2311 c-4 -18 -7 -71 -7 -117 l0 -84 -32 -1 c-30 -1 -31 -2 -8
-8 20 -5 26 -14 28 -44 3 -36 2 -37 -22 -31 -16 4 -26 2 -26 -5 0 -6 13 -11
29 -11 29 0 30 1 36 65 6 55 10 65 26 65 11 0 19 4 19 9 0 5 -9 7 -20 4 -22
-6 -26 7 -8 25 7 7 8 12 2 12 -6 0 -12 20 -12 45 -2 39 1 47 20 55 17 6 18 9
6 9 -9 1 -18 11 -20 24 -3 18 -5 16 -11 -12z"/>
<path d="M2030 2253 c0 -49 -3 -125 -6 -169 -6 -78 -6 -82 15 -89 25 -8 26
-20 7 -57 -15 -28 -14 -28 15 -28 29 0 29 0 29 -59 0 -54 -2 -60 -22 -64 l-23
-4 23 -2 c12 0 22 -6 22 -12 0 -5 -4 -8 -9 -4 -6 3 -9 -25 -7 -70 2 -41 -1
-75 -6 -75 -5 0 -7 -4 -3 -9 3 -6 -7 -25 -23 -43 -16 -18 -32 -41 -35 -52 -4
-11 -13 -16 -22 -12 -8 3 -15 1 -15 -5 0 -6 -4 -7 -10 -4 -5 3 -10 1 -10 -4 0
-6 16 -11 35 -11 29 0 35 4 35 21 0 26 30 64 50 64 8 0 14 6 12 14 -1 7 2 18
7 25 5 6 9 65 10 131 1 148 11 255 22 255 5 0 9 29 9 64 0 36 5 68 10 71 6 4
7 12 3 18 -10 16 -10 41 0 48 4 3 3 18 -4 32 -10 22 -9 29 6 43 14 15 18 15
26 3 6 -9 8 1 7 31 -1 29 -2 35 -5 18 -3 -16 -11 -28 -19 -28 -10 0 -13 8 -10
25 5 25 -11 36 -19 13 -2 -7 -5 -84 -8 -171 -4 -171 -10 -190 -52 -159 -28 21
-32 62 -5 62 16 0 20 -7 20 -32 0 -19 4 -28 9 -23 5 6 11 83 14 173 6 162 6
162 -16 161 -15 -1 -17 -3 -6 -6 18 -4 21 -63 4 -62 -29 2 -44 15 -35 29 14
22 12 40 -5 40 -12 0 -15 -16 -15 -87z m46 9 c7 -4 11 -40 10 -97 -1 -83 -3
-90 -21 -93 -17 -2 -21 3 -20 28 0 19 5 30 15 31 13 0 13 1 0 7 -8 4 -15 18
-15 32 0 14 7 28 15 32 12 5 11 7 -4 7 -15 1 -17 4 -8 13 7 7 8 17 1 30 -10
19 5 25 27 10z m14 -327 c0 -8 -6 -15 -13 -15 -8 0 -14 7 -14 15 0 8 6 15 14
15 7 0 13 -7 13 -15z"/>
<path d="M2246 2268 c-3 -40 -10 -185 -16 -322 -10 -234 -10 -249 7 -262 17
-13 17 -13 1 -14 -10 0 -18 5 -18 10 0 23 -16 7 -37 -35 -19 -40 -20 -46 -6
-53 11 -7 12 -11 4 -16 -6 -4 -11 -3 -11 2 0 6 -16 10 -35 10 -19 0 -35 -4
-35 -9 0 -5 15 -9 33 -9 40 0 58 -29 46 -72 -4 -16 -3 -28 2 -28 5 0 9 10 9
23 1 20 2 20 11 4 7 -12 6 -25 -7 -45 -15 -27 -20 -29 -68 -24 -28 2 -48 2
-45 -2 3 -3 31 -7 61 -10 46 -3 55 -1 51 11 -3 8 0 13 8 11 8 -2 13 3 12 10
-5 20 6 14 22 -15 l15 -28 -6 27 c-4 20 -1 29 14 37 11 6 22 8 25 5 3 -3 4 1
3 10 -1 8 -6 19 -11 23 -4 4 -5 2 -1 -4 4 -8 2 -13 -5 -13 -6 0 -17 -8 -24
-17 -11 -15 -13 -15 -24 5 -10 18 -9 20 9 17 11 -2 22 0 25 6 4 5 -7 9 -23 9
-18 0 -32 6 -36 16 -12 30 -6 34 25 18 17 -8 28 -11 24 -4 -4 6 -18 15 -32 21
-13 5 -22 13 -18 18 3 5 1 12 -5 16 -17 10 -11 25 8 18 14 -6 15 -4 5 9 -15
17 -8 28 19 28 10 0 33 -21 54 -50 20 -28 44 -55 54 -60 19 -10 42 -84 33
-106 -8 -22 -30 -16 -37 8 -4 17 -8 20 -17 11 -8 -8 -6 -16 7 -32 19 -22 61
-30 48 -10 -4 8 1 9 17 4 26 -8 27 -8 49 -6 11 1 8 7 -9 20 -23 17 -23 19 -7
47 16 26 16 18 0 -21 -3 -8 -1 -15 5 -15 6 0 11 7 11 15 0 13 4 14 20 5 12 -7
17 -16 13 -28 -3 -9 -2 -14 2 -9 8 7 12 27 14 72 2 20 2 20 17 0 14 -18 15
-11 9 85 -4 58 -11 109 -15 114 -5 5 -7 0 -4 -11 3 -12 1 -24 -5 -27 -7 -5 -8
-14 -2 -24 15 -29 23 -112 11 -112 -6 0 -15 -11 -20 -25 -5 -14 -14 -25 -19
-25 -5 0 -11 11 -13 25 -3 14 -1 25 6 25 6 0 4 5 -4 10 -10 6 -17 4 -24 -7 -7
-13 -10 -13 -17 -2 -5 9 -7 -8 -6 -42 2 -37 -1 -55 -8 -53 -6 3 -9 20 -7 39 2
19 -3 48 -12 66 -21 42 -20 46 3 25 32 -29 56 -17 59 32 2 25 -1 42 -7 42 -22
0 -10 47 17 73 29 28 56 35 67 17 4 -6 10 -8 15 -5 6 3 7 -46 4 -117 -3 -94
-8 -124 -19 -131 -20 -11 -19 -28 0 -21 17 7 21 -11 5 -21 -5 -3 -10 -10 -10
-16 0 -5 13 5 29 23 26 29 31 31 43 18 7 -9 22 -23 33 -30 18 -14 19 -14 6 3
-9 11 -10 17 -2 17 6 0 11 5 11 11 0 6 -9 9 -20 6 -13 -3 -20 0 -20 10 0 8 5
11 10 8 6 -3 10 1 10 9 0 9 5 16 10 16 6 0 10 -4 10 -8 0 -7 17 -7 65 -3 6 1
3 6 -5 11 -12 8 -11 10 6 10 11 0 23 -3 27 -6 6 -7 -29 -44 -43 -44 -5 0 -17
-17 -26 -37 -10 -21 -20 -42 -22 -47 -3 -5 7 -7 22 -4 22 4 26 2 21 -12 -3
-10 -1 -21 5 -25 5 -3 10 -15 10 -26 0 -15 -6 -19 -22 -17 -11 2 -23 -3 -26
-11 -3 -10 2 -12 21 -7 30 7 43 -7 22 -24 -12 -10 -15 -10 -15 0 0 8 -9 10
-26 6 -22 -6 -25 -4 -19 13 5 16 2 18 -17 14 -21 -6 -20 -3 9 27 18 19 31 35
28 38 -2 2 -21 -14 -42 -36 -35 -37 -43 -40 -108 -46 -104 -9 -273 -19 -332
-19 -29 0 -53 -4 -53 -9 0 -5 -26 -9 -57 -9 -32 1 -97 -3 -144 -9 -47 -5 -133
-11 -191 -14 -58 -3 -116 -7 -129 -10 -81 -16 -86 -16 -83 7 1 12 3 30 3 40 1
9 5 17 11 17 5 0 7 -14 4 -32 -4 -25 -3 -29 5 -18 6 8 11 24 11 35 0 19 8 20
153 23 88 2 156 8 162 14 7 7 -24 8 -100 3 -195 -13 -245 -14 -245 -4 0 5 6 9
14 9 7 0 16 11 18 25 3 13 1 22 -3 19 -5 -3 -9 -12 -9 -20 0 -25 -15 -15 -16
11 -2 20 3 25 22 25 13 0 24 4 24 8 0 4 -16 6 -35 4 -36 -4 -44 -19 -23 -40 9
-9 9 -12 -1 -12 -7 0 -9 -5 -6 -10 4 -6 1 -17 -5 -25 -10 -11 -10 -15 -1 -15
7 0 9 -4 6 -10 -12 -20 -24 -9 -31 27 -4 23 -2 43 5 56 8 11 8 16 2 12 -7 -4
-11 3 -11 17 0 13 -7 34 -16 46 -15 22 -14 22 24 22 21 0 47 7 58 15 17 13 15
14 -31 9 -27 -3 -55 -7 -62 -9 -6 -2 -17 3 -23 11 -7 8 -20 14 -29 14 -11 -1
-7 -8 14 -26 17 -15 25 -23 18 -20 -6 4 -15 1 -19 -5 -4 -8 -3 -9 4 -5 7 4 12
2 12 -4 0 -6 5 -8 12 -4 8 5 9 2 5 -10 -5 -11 -3 -15 5 -10 8 5 9 2 5 -9 -3
-9 -2 -19 3 -22 5 -3 6 -31 3 -63 -3 -44 -2 -54 7 -42 9 12 10 -3 7 -66 -2
-54 0 -84 9 -91 6 -7 14 -10 16 -7 3 2 5 -3 5 -11 0 -8 -4 -12 -8 -10 -13 8
-16 -29 -8 -100 4 -39 3 -78 -2 -87 -7 -14 -6 -16 6 -12 12 5 15 -2 14 -32 -1
-22 4 -67 10 -101 6 -34 13 -100 14 -146 1 -47 5 -80 10 -73 4 6 5 -13 2 -42
-2 -29 -1 -51 3 -48 5 3 8 -14 9 -37 0 -23 4 -94 9 -157 10 -136 11 -155 13
-197 0 -18 6 -33 13 -33 16 0 5 192 -38 655 -19 209 -32 390 -29 402 3 12 0
34 -7 49 -10 22 -10 28 0 32 6 2 12 8 12 13 0 4 -6 6 -14 3 -10 -4 -15 6 -18
35 -2 26 1 41 8 41 7 0 10 -12 8 -31 -4 -28 -2 -31 20 -25 13 3 113 12 222 21
110 8 348 27 530 42 317 25 333 26 350 9 17 -17 22 -17 99 -4 12 2 14 193 2
205 -5 4 -8 -1 -7 -12 5 -47 1 -54 -30 -52 -16 1 -30 3 -30 5 0 8 31 62 36 62
3 0 2 -6 -1 -12 -4 -7 0 -4 9 6 8 10 17 24 20 30 7 15 38 -25 32 -41 -3 -7 1
-10 9 -7 10 4 11 12 5 29 -5 13 -6 26 -2 31 4 4 2 4 -5 0 -7 -4 -13 2 -15 16
-2 15 -11 24 -25 26 -15 2 -20 8 -17 20 5 15 4 15 -6 -1 -12 -19 -35 -13 -24
6 5 9 4 9 -5 1 -10 -9 -10 -17 -2 -33 10 -17 9 -21 -4 -21 -8 0 -15 8 -15 18
0 13 -2 14 -9 4 -4 -8 -14 -13 -22 -12 -29 4 -39 -1 -39 -20 0 -11 -6 -20 -14
-20 -10 0 -12 15 -8 68 2 37 9 70 14 73 6 4 6 9 1 12 -5 3 -7 32 -6 64 2 32 4
84 5 116 1 54 2 57 27 57 23 0 26 4 26 35 0 33 -2 35 -32 35 -31 0 -33 -2 -33
-37 -1 -55 -11 -157 -17 -163 -2 -3 -13 6 -23 20 -16 20 -19 40 -18 100 l2 75
6 -75 c4 -45 6 -2 4 105 -1 112 1 159 5 125 5 -32 6 11 3 100 -3 85 -6 156 -7
158 -1 1 -6 -82 -10 -185 -4 -103 -12 -194 -17 -200 -6 -8 -7 -13 -1 -13 5 0
7 -15 5 -32 -4 -28 -6 -30 -13 -13 -12 30 -11 134 1 115 7 -11 10 1 10 42 0
31 -4 58 -8 60 -4 2 -6 28 -3 58 3 44 6 50 12 30 5 -18 7 -10 8 32 1 31 -3 59
-8 62 -5 3 -7 16 -5 29 4 21 4 21 -8 -2 -10 -19 -10 -25 0 -29 16 -5 16 -62 0
-62 -14 0 -19 -122 -5 -136 10 -10 9 -62 -2 -66 -11 -4 -21 -127 -10 -134 12
-7 11 -51 -1 -59 -5 -3 -10 -11 -10 -16 0 -6 5 -7 10 -4 14 8 13 -37 -2 -72
-6 -15 -12 -31 -12 -35 -1 -3 -4 -10 -8 -14 -5 -4 -8 32 -8 80 0 48 4 85 8 82
5 -3 7 18 5 47 -6 73 -11 81 -12 20 -1 -28 -5 -54 -9 -57 -11 -7 -2 116 9 129
5 5 9 14 9 20 0 5 -5 3 -10 -5 -7 -11 -10 -4 -10 25 0 28 3 36 9 25 6 -8 7
-19 5 -25 -3 -5 2 -1 10 9 9 11 16 25 16 30 0 6 -5 4 -11 -4 -9 -12 -10 -10
-6 8 4 17 2 21 -6 13 -9 -7 -11 14 -10 85 1 54 -2 92 -7 89 -5 -3 -12 0 -16 6
-4 8 -3 9 4 5 7 -4 12 -3 12 2 0 6 10 8 23 5 16 -3 18 -2 8 5 -11 8 -11 10 0
15 10 4 9 6 -3 6 -11 1 -15 6 -12 16 4 8 1 15 -5 15 -6 0 -11 -6 -11 -12 0 -9
-3 -8 -10 2 -5 8 -11 12 -14 10 -8 -9 -33 -548 -36 -768 0 -1 -11 5 -25 14
-18 12 -23 22 -19 39 6 24 -16 49 -24 27 -6 -20 -22 -13 -22 11 -2 140 1 328
6 442 10 224 10 235 3 235 -4 0 -10 -33 -13 -72z m141 -145 c-2 -21 -4 -6 -4
32 0 39 2 55 4 38 2 -18 2 -50 0 -70z m-12 -291 c-4 -84 -9 -151 -12 -148 -3
3 -1 90 3 193 5 103 10 170 12 148 2 -22 1 -109 -3 -193z m213 66 c-2 -13 -10
-23 -18 -23 -9 0 -15 10 -16 23 -1 15 4 22 18 22 14 0 19 -6 16 -22z m-121
-125 c-2 -21 -4 -6 -4 32 0 39 2 55 4 38 2 -18 2 -50 0 -70z m-68 -28 c-1 -58
-3 -105 -4 -105 -12 0 -35 14 -35 21 0 4 6 6 13 3 14 -5 14 -5 16 119 0 37 3
67 6 67 3 0 5 -47 4 -105z m-25 -111 c9 -3 16 -12 16 -20 0 -8 5 -14 11 -14 5
0 7 5 4 10 -3 6 -1 10 4 10 6 0 11 -12 11 -27 0 -22 -2 -25 -10 -13 -9 13 -11
13 -20 0 -9 -13 -10 -13 -11 0 -1 8 -1 19 0 24 1 4 -6 14 -16 22 -19 14 -14
18 11 8z"/>
<path d="M2513 2270 c0 -41 2 -58 4 -37 2 20 2 54 0 75 -2 20 -4 3 -4 -38z"/>
<path d="M2570 2324 c0 -8 5 -12 10 -9 6 3 10 10 10 16 0 5 -4 9 -10 9 -5 0
-10 -7 -10 -16z"/>
<path d="M2600 2320 c0 -11 -6 -20 -14 -20 -13 0 -26 -114 -26 -232 0 -45 -2
-48 -25 -48 -22 0 -25 -4 -25 -40 0 -36 3 -40 25 -40 20 0 25 5 25 25 0 16 6
25 16 25 11 0 15 -6 11 -20 -3 -11 -1 -18 4 -14 5 3 9 27 9 55 0 37 -4 49 -15
49 -26 0 -19 48 8 53 l22 4 -22 2 c-18 1 -22 6 -21 26 2 17 8 25 20 25 15 0
18 10 19 63 0 34 2 72 3 85 2 12 -1 22 -6 22 -4 0 -8 -9 -8 -20z m0 -55 c0
-14 -4 -25 -10 -25 -5 0 -10 11 -10 25 0 14 5 25 10 25 6 0 10 -11 10 -25z m0
-60 c0 -14 -4 -25 -10 -25 -5 0 -10 11 -10 25 0 14 5 25 10 25 6 0 10 -11 10
-25z m-10 -180 c0 -16 -6 -25 -16 -25 -11 0 -14 5 -10 16 3 9 6 20 6 25 0 5 5
9 10 9 6 0 10 -11 10 -25z m-40 -31 c0 -9 -5 -14 -12 -12 -18 6 -21 28 -4 28
9 0 16 -7 16 -16z m0 -35 c0 -5 -7 -9 -15 -9 -8 0 -15 7 -15 15 0 9 6 12 15 9
8 -4 15 -10 15 -15z"/>
<path d="M2629 2323 c0 -10 -2 -42 -3 -70 -2 -29 1 -53 6 -53 4 0 8 32 8 70 0
39 -2 70 -5 70 -3 0 -5 -8 -6 -17z"/>
<path d="M2676 2254 c-4 -47 -6 -87 -4 -89 2 -1 16 -5 32 -9 24 -6 27 -5 19 6
-6 7 -13 22 -16 33 -4 18 -5 18 -6 -2 0 -13 -5 -23 -11 -23 -15 0 -12 27 6 44
12 12 12 16 2 16 -10 0 -9 3 2 11 11 8 12 12 3 16 -7 2 -13 9 -13 15 0 25 26
-2 31 -33 4 -27 6 -20 10 34 4 67 4 67 -22 67 -26 0 -26 -2 -33 -86z"/>
<path d="M2769 2273 c1 -38 -3 -117 -8 -178 -6 -60 -10 -125 -10 -142 -1 -28
-5 -33 -26 -33 -22 0 -24 -2 -14 -19 7 -11 19 -16 30 -14 11 3 16 10 12 16 -3
5 2 16 12 24 12 8 14 13 6 13 -9 0 -11 8 -7 23 3 12 8 63 11 112 2 50 7 104
10 120 3 17 7 56 9 88 2 44 0 57 -11 57 -11 0 -14 -16 -14 -67z"/>
<path d="M2880 2314 c0 -16 -7 -139 -15 -274 -16 -267 -18 -346 -9 -337 7 7
14 63 17 138 2 32 9 65 17 75 9 11 10 15 2 10 -17 -10 -11 209 6 242 7 12 9
22 4 22 -5 0 -9 32 -10 72 -2 69 -12 112 -12 52z"/>
<path d="M2910 2288 c0 -28 3 -48 7 -45 9 10 10 97 1 97 -5 0 -8 -23 -8 -52z"/>
<path d="M2968 2293 c-1 -27 -3 -73 -3 -103 -1 -30 -7 -127 -14 -215 -6 -88
-12 -208 -13 -267 l-2 -106 -24 9 c-31 12 -32 12 -32 -7 0 -8 4 -13 9 -10 5 3
11 0 13 -7 3 -6 -13 -29 -34 -51 -21 -21 -38 -33 -38 -27 0 6 5 11 10 11 6 0
10 13 10 28 0 16 3 32 7 36 4 4 6 26 5 49 -2 31 0 38 7 27 6 -8 11 -11 11 -7
0 5 7 1 16 -8 20 -19 35 -4 27 26 -7 26 -16 30 -52 23 -30 -6 -31 -8 -31 -60
0 -51 -1 -54 -25 -54 -14 0 -25 -4 -25 -9 0 -5 10 -7 21 -4 20 6 21 3 14 -36
-5 -28 -3 -41 4 -41 8 0 9 -6 1 -19 -15 -29 -12 -41 10 -41 11 0 20 5 20 11 0
5 5 7 10 4 6 -3 10 0 10 7 0 9 2 10 8 1 5 -8 14 -8 32 3 23 14 23 14 3 9 -15
-4 -23 -2 -23 6 0 10 -3 10 -12 1 -18 -18 -28 -15 -28 8 0 13 5 18 15 14 8 -4
15 -2 15 4 0 6 10 8 22 4 14 -3 19 -1 14 6 -3 6 -15 9 -25 7 -28 -5 -35 22 -8
31 12 4 23 2 25 -5 5 -15 18 -14 19 2 3 46 24 114 40 127 10 8 19 26 20 40 l3
25 -12 -25 c-12 -25 -12 -25 -15 10 -2 19 3 159 11 310 8 168 10 279 4 287 -6
7 -4 13 4 16 8 4 7 6 -4 6 -15 1 -18 -8 -20 -46z"/>
<path d="M710 2291 c0 -6 4 -13 10 -16 6 -3 7 1 4 9 -7 18 -14 21 -14 7z"/>
<path d="M955 2290 c3 -5 8 -10 11 -10 2 0 4 5 4 10 0 6 -5 10 -11 10 -5 0 -7
-4 -4 -10z"/>
<path d="M1068 2273 c7 -3 16 -2 19 1 4 3 -2 6 -13 5 -11 0 -14 -3 -6 -6z"/>
<path d="M2300 2270 c-9 -6 -10 -10 -3 -10 6 0 15 5 18 10 8 12 4 12 -15 0z"/>
<path d="M245 2260 c-3 -6 1 -7 9 -4 18 7 21 14 7 14 -6 0 -13 -4 -16 -10z"/>
<path d="M961 2254 c0 -11 3 -14 6 -6 3 7 2 16 -1 19 -3 4 -6 -2 -5 -13z"/>
<path d="M2421 2188 c2 -86 6 -76 11 25 2 31 0 57 -4 57 -5 0 -7 -37 -7 -82z"/>
<path d="M286 2248 c3 -5 10 -6 15 -3 13 9 11 12 -6 12 -8 0 -12 -4 -9 -9z"/>
<path d="M459 2249 c-11 -7 -11 -9 2 -9 9 0 28 -9 42 -20 23 -18 25 -18 22 -3
-1 10 -8 17 -14 16 -15 -4 -14 14 2 20 6 2 0 4 -14 4 -15 0 -33 -3 -40 -8z"/>
<path d="M1416 2223 c10 -40 14 -41 14 -5 0 18 -5 32 -10 32 -6 0 -8 -11 -4
-27z"/>
<path d="M350 2229 c0 -5 5 -7 10 -4 6 3 10 8 10 11 0 2 -4 4 -10 4 -5 0 -10
-5 -10 -11z"/>
<path d="M2166 2232 c-2 -4 -1 -14 5 -22 7 -12 9 -10 9 8 0 23 -5 28 -14 14z"/>
<path d="M13 2223 c9 -2 25 -2 35 0 9 3 1 5 -18 5 -19 0 -27 -2 -17 -5z"/>
<path d="M1920 2220 c0 -5 5 -10 10 -10 6 0 10 5 10 10 0 6 -4 10 -10 10 -5 0
-10 -4 -10 -10z"/>
<path d="M2293 2165 c0 -38 2 -53 4 -32 2 20 2 52 0 70 -2 17 -4 1 -4 -38z"/>
<path d="M1230 2191 c0 -17 2 -31 4 -31 8 0 13 51 5 56 -5 3 -9 -9 -9 -25z"/>
<path d="M416 2185 c4 -8 11 -15 16 -15 6 0 5 6 -2 15 -7 8 -14 15 -16 15 -2
0 -1 -7 2 -15z"/>
<path d="M726 2168 c9 -16 14 -35 10 -43 -3 -8 -1 -15 4 -15 17 0 11 37 -11
61 l-20 24 17 -27z"/>
<path d="M1639 2183 c-5 -32 -3 -36 17 -39 13 -2 21 2 21 11 0 8 -4 12 -8 9
-4 -2 -12 4 -18 13 -6 11 -11 13 -12 6z"/>
<path d="M845 2170 c3 -5 8 -10 11 -10 2 0 4 5 4 10 0 6 -5 10 -11 10 -5 0 -7
-4 -4 -10z"/>
<path d="M1416 2165 c4 -8 8 -15 10 -15 2 0 4 7 4 15 0 8 -4 15 -10 15 -5 0
-7 -7 -4 -15z"/>
<path d="M2628 2173 c6 -2 18 -2 25 0 6 3 1 5 -13 5 -14 0 -19 -2 -12 -5z"/>
<path d="M1570 2155 c7 -8 17 -12 22 -9 6 4 5 10 -3 15 -22 14 -33 10 -19 -6z"/>
<path d="M2162 2130 c0 -16 4 -32 9 -35 5 -4 9 10 9 29 0 43 -17 49 -18 6z"/>
<path d="M1510 2140 c0 -6 5 -10 11 -10 8 0 7 -6 -2 -17 -13 -16 -12 -17 4 -4
21 17 22 27 2 35 -8 3 -15 1 -15 -4z"/>
<path d="M1610 2142 c0 -5 7 -15 15 -22 8 -7 15 -8 15 -2 0 5 -7 15 -15 22 -8
7 -15 8 -15 2z"/>
<path d="M9 2098 c-2 -24 -1 -59 2 -78 5 -24 7 -12 8 43 1 83 -5 103 -10 35z"/>
<path d="M208 2113 c17 -7 17 -150 0 -155 -7 -3 -4 -7 7 -10 19 -5 20 0 17 84
-3 75 -6 88 -20 87 -11 0 -12 -2 -4 -6z"/>
<path d="M560 2095 c0 -16 4 -36 9 -44 11 -18 -17 -74 -34 -67 -8 3 -19 -3
-27 -12 -12 -15 -11 -16 4 -4 12 10 18 10 24 1 5 -9 11 -7 21 6 7 11 13 14 13
6 0 -7 5 -11 11 -9 6 2 10 7 9 12 -1 5 4 13 12 18 9 7 6 8 -10 5 -15 -4 -22
-1 -19 6 2 7 12 11 21 11 19 -2 19 1 5 27 -5 11 -15 16 -21 13 -7 -5 -9 0 -6
13 3 12 2 27 -3 34 -6 10 -9 5 -9 -16z"/>
<path d="M1565 2110 c-19 -8 -19 -9 3 -9 13 -1 21 -5 17 -11 -4 -6 -15 -6 -30
0 -14 5 -25 8 -26 7 -11 -32 -2 -46 17 -28 5 6 17 4 29 -6 14 -11 16 -17 8
-20 -7 -3 -13 -9 -13 -15 0 -6 7 -5 16 3 15 12 16 11 9 -10 -5 -16 -3 -26 6
-32 7 -4 11 -11 7 -14 -3 -4 -15 4 -27 16 -11 12 -24 19 -28 16 -3 -4 -1 -7 5
-7 7 0 12 -7 12 -15 0 -8 6 -15 14 -15 10 0 14 -9 12 -27 -2 -16 -9 -28 -15
-28 -6 0 -16 -7 -21 -15 -7 -12 -10 -11 -16 5 -4 11 -9 24 -12 29 -3 5 -1 7 4
3 5 -3 9 9 8 26 -1 20 -7 33 -20 37 -18 7 -19 0 -20 -149 -1 -86 1 -149 4
-141 2 8 9 23 14 34 8 14 7 17 -4 11 -11 -7 -11 -5 0 6 11 11 14 12 21 1 7
-11 10 -10 15 3 10 26 7 32 -13 38 -15 3 -18 1 -14 -12 5 -13 4 -14 -8 -3 -12
11 -11 15 4 26 15 12 15 15 2 26 -19 16 -19 27 0 46 14 14 19 11 16 -8 0 -4
14 0 32 8 19 9 35 22 36 30 1 8 2 23 3 34 1 11 6 20 11 20 4 0 5 5 1 12 -5 8
-2 9 9 5 26 -10 20 1 -8 15 -23 13 -24 15 -10 41 13 25 12 30 -5 47 -10 10
-16 21 -12 24 8 8 -9 6 -33 -4z m44 -34 c9 -11 9 -16 0 -22 -8 -4 -9 -3 -5 4
4 7 1 12 -9 12 -9 0 -13 5 -10 10 8 13 10 13 24 -4z"/>
<path d="M65 2100 c3 -5 8 -10 11 -10 2 0 4 5 4 10 0 6 -5 10 -11 10 -5 0 -7
-4 -4 -10z"/>
<path d="M298 2103 c6 -2 18 -2 25 0 6 3 1 5 -13 5 -14 0 -19 -2 -12 -5z"/>
<path d="M631 2094 c0 -11 3 -14 6 -6 3 7 2 16 -1 19 -3 4 -6 -2 -5 -13z"/>
<path d="M2683 2103 c9 -2 23 -2 30 0 6 3 -1 5 -18 5 -16 0 -22 -2 -12 -5z"/>
<path d="M716 2083 c-6 -14 -5 -15 5 -6 7 7 10 15 7 18 -3 3 -9 -2 -12 -12z"/>
<path d="M1847 2083 c-13 -13 -7 -33 11 -33 13 0 14 2 3 9 -7 5 -10 14 -7 20
8 12 3 15 -7 4z"/>
<path d="M1915 2080 c-3 -5 -1 -10 4 -10 6 0 11 5 11 10 0 6 -2 10 -4 10 -3 0
-8 -4 -11 -10z"/>
<path d="M661 2064 c-11 -13 -15 -14 -22 -2 -7 10 -9 10 -9 -2 0 -9 5 -21 12
-28 9 -9 7 -13 -5 -18 -9 -3 -14 -10 -11 -15 3 -5 10 -7 15 -4 5 4 9 -1 9 -9
0 -8 4 -18 10 -21 7 -4 7 3 0 20 -13 33 -13 38 1 29 8 -4 8 0 0 15 -7 11 -8
21 -3 21 12 0 36 -46 29 -57 -2 -4 -1 -17 3 -28 4 -12 7 6 7 45 1 36 -1 57 -4
47 -2 -9 -8 -15 -13 -12 -5 3 -7 12 -3 20 7 19 2 18 -16 -1z"/>
<path d="M2158 2018 c-1 -35 0 -81 3 -103 4 -26 7 -4 8 63 1 112 -5 138 -11
40z"/>
<path d="M2618 2053 c6 -2 18 -2 25 0 6 3 1 5 -13 5 -14 0 -19 -2 -12 -5z"/>
<path d="M2287 2043 c-4 -3 -7 -33 -7 -66 0 -33 2 -58 5 -55 4 4 13 128 9 128
0 0 -4 -3 -7 -7z"/>
<path d="M2660 2046 c0 -2 14 -6 30 -8 17 -3 30 -1 30 4 0 4 -13 8 -30 8 -16
0 -30 -2 -30 -4z"/>
<path d="M1624 2029 c-3 -5 6 -8 20 -7 26 2 26 10 1 14 -8 1 -17 -2 -21 -7z"/>
<path d="M482 1999 c-23 -9 -22 -29 1 -29 7 0 6 4 -3 10 -12 8 -11 10 8 10 12
0 22 5 22 10 0 6 -1 10 -2 9 -2 0 -13 -4 -26 -10z"/>
<path d="M1667 2003 c-4 -3 -7 -14 -7 -24 0 -9 -4 -19 -9 -21 -5 -1 -2 -10 7
-18 14 -13 15 -12 9 3 -9 24 10 21 23 -3 7 -13 7 -20 1 -20 -6 0 -7 -7 -4 -17
5 -12 3 -14 -8 -8 -8 4 -11 5 -7 1 4 -5 1 -14 -5 -21 -10 -11 -15 -11 -28 1
-14 12 -16 12 -16 -1 0 -8 6 -15 13 -15 7 0 18 -8 23 -17 9 -16 10 -16 11 5 0
12 4 22 10 22 12 0 43 -58 36 -68 -3 -4 -1 -14 3 -21 5 -7 8 8 8 36 0 26 -2
42 -5 35 -3 -9 -9 -7 -20 9 -11 17 -12 24 -4 27 7 2 10 8 6 13 -3 5 -2 14 2
20 5 8 8 8 14 0 3 -7 7 2 7 19 0 17 -3 26 -7 20 -11 -17 -15 -17 -33 2 -19 18
-23 33 -7 23 6 -3 7 1 4 9 -7 18 -8 19 -17 9z"/>
<path d="M1411 1984 c0 -11 3 -14 6 -6 3 7 2 16 -1 19 -3 4 -6 -2 -5 -13z"/>
<path d="M2623 1993 c9 -2 25 -2 35 0 9 3 1 5 -18 5 -19 0 -27 -2 -17 -5z"/>
<path d="M2693 1983 c9 -2 23 -2 30 0 6 3 -1 5 -18 5 -16 0 -22 -2 -12 -5z"/>
<path d="M613 1974 c3 -3 -3 -16 -14 -27 -14 -16 -16 -23 -7 -29 9 -5 16 1 21
17 5 14 12 25 17 25 12 0 62 -81 57 -93 -2 -7 -1 -21 4 -32 5 -13 8 3 8 45 0
40 -3 58 -8 46 -5 -14 -10 -16 -15 -8 -4 7 -4 12 -1 12 4 0 -7 11 -23 25 -26
21 -57 37 -39 19z"/>
<path d="M58 1963 c12 -2 30 -2 40 0 9 3 -1 5 -23 4 -22 0 -30 -2 -17 -4z"/>
<path d="M123 1900 c0 -41 2 -58 4 -37 2 20 2 54 0 75 -2 20 -4 3 -4 -38z"/>
<path d="M726 1953 c8 -9 13 -24 11 -34 -3 -11 -1 -19 4 -19 4 0 8 15 7 33 -1
24 -6 33 -20 34 -17 2 -17 0 -2 -14z"/>
<path d="M270 1953 c8 -3 19 -11 23 -17 6 -7 7 -6 4 4 -2 8 -12 16 -23 17 -13
2 -15 1 -4 -4z"/>
<path d="M413 1940 c-3 -11 -10 -17 -16 -13 -5 3 -8 2 -5 -3 3 -5 8 -17 12
-28 5 -15 9 -16 21 -6 11 9 12 16 2 31 -10 16 -9 21 3 29 11 7 12 10 2 10 -8
0 -16 -9 -19 -20z m12 -29 c3 -5 1 -12 -5 -16 -5 -3 -10 1 -10 9 0 18 6 21 15
7z"/>
<path d="M452 1946 c-21 -11 -22 -14 -7 -26 13 -11 15 -10 9 5 -5 13 -3 16 7
13 8 -3 13 -11 11 -18 -3 -14 16 -40 29 -40 5 0 9 5 9 10 0 6 -7 10 -16 10
-11 0 -14 6 -9 20 4 13 2 20 -7 20 -10 0 -9 3 2 10 22 14 -1 11 -28 -4z"/>
<path d="M561 1944 c0 -11 3 -14 6 -6 3 7 2 16 -1 19 -3 4 -6 -2 -5 -13z"/>
<path d="M1567 1953 c-4 -3 -7 -11 -7 -17 0 -6 5 -5 12 2 6 6 9 14 7 17 -3 3
-9 2 -12 -2z"/>
<path d="M323 1943 c9 -2 23 -2 30 0 6 3 -1 5 -18 5 -16 0 -22 -2 -12 -5z"/>
<path d="M529 1943 c0 -5 -2 -19 -4 -33 -2 -14 -1 -19 1 -12 3 6 10 10 15 6 5
-3 9 0 9 5 0 6 -4 11 -10 11 -5 0 -7 7 -4 15 4 8 3 15 0 15 -3 0 -6 -3 -7 -7z"/>
<path d="M1330 1936 c0 -9 5 -16 10 -16 6 0 10 4 10 9 0 6 -4 13 -10 16 -5 3
-10 -1 -10 -9z"/>
<path d="M639 1913 c6 -11 8 -22 6 -25 -3 -3 2 -5 9 -5 11 0 12 5 5 18 -5 10
-14 21 -20 25 -8 5 -8 1 0 -13z"/>
<path d="M2635 1914 c20 -15 20 -15 1 -30 -11 -7 -18 -16 -15 -18 2 -2 32 -7
67 -11 43 -5 62 -4 62 4 0 6 -3 10 -7 10 -5 -1 -30 -1 -57 0 l-49 1 21 23 c25
27 20 37 -17 37 -25 -1 -26 -1 -6 -16z"/>
<path d="M1632 1908 c6 -18 28 -21 28 -4 0 9 -7 16 -16 16 -9 0 -14 -5 -12
-12z"/>
<path d="M363 1893 c0 -9 4 -10 14 -2 7 6 13 12 13 14 0 1 -6 2 -13 2 -8 0
-14 -6 -14 -14z"/>
<path d="M551 1891 c-24 -18 -24 -18 -3 -32 20 -14 20 -15 -13 -59 -19 -25
-37 -45 -42 -46 -4 0 -15 -4 -23 -7 -22 -9 -53 -2 -58 13 -3 8 0 10 8 5 10 -6
12 -4 7 7 -9 25 5 30 21 7 10 -14 17 -17 26 -10 7 6 16 8 19 4 4 -3 12 8 18
25 6 17 15 30 21 29 6 -1 13 4 16 12 3 10 -1 13 -16 9 -14 -4 -19 -2 -16 6 3
9 -4 11 -25 8 -33 -5 -48 -44 -24 -63 7 -7 11 -14 8 -17 -3 -3 -14 3 -24 12
-16 14 -18 23 -11 42 6 15 6 24 0 24 -6 0 -10 -10 -10 -22 0 -21 0 -21 -14 -3
-8 11 -12 24 -9 29 4 5 1 6 -5 2 -5 -3 -13 0 -15 6 -3 8 -6 6 -6 -4 -1 -10 -5
-18 -9 -18 -9 0 -8 -47 1 -56 3 -4 2 -14 -3 -23 -20 -37 9 -113 35 -91 8 6 15
6 24 -3 9 -9 14 -9 20 1 6 10 14 5 30 -20 13 -18 20 -26 17 -18 -3 8 -9 23
-12 33 -4 9 -11 17 -16 17 -6 0 -4 8 3 18 7 9 1 6 -15 -8 -18 -16 -26 -20 -24
-10 2 8 -3 14 -9 13 -8 -2 -13 7 -12 20 l0 22 16 -22 15 -23 17 21 17 21 17
-25 c9 -14 14 -33 11 -41 -4 -9 -1 -16 6 -16 7 0 10 -7 6 -17 -6 -17 -5 -17 7
-1 12 15 16 15 30 3 9 -8 12 -10 7 -3 -6 7 -10 19 -10 28 1 11 6 9 20 -8 10
-13 17 -29 14 -36 -8 -20 37 -28 56 -11 9 8 20 12 23 8 4 -3 7 -2 7 4 0 6 -7
16 -15 23 -8 7 -12 17 -9 22 3 5 11 2 18 -7 11 -15 12 -14 12 3 0 24 -21 24
-43 -1 -10 -11 -13 -17 -6 -14 19 11 26 -12 9 -29 -15 -14 -21 -11 -17 10 1 5
-6 3 -15 -5 -16 -13 -16 -12 -6 8 16 29 15 36 -3 30 -8 -4 -17 -2 -20 3 -4 6
2 10 12 11 12 1 10 3 -7 8 -18 5 -28 2 -38 -11 -15 -21 -34 -15 -26 7 4 8 10
13 14 10 5 -3 11 -1 14 3 8 14 56 8 66 -8 7 -11 10 -12 10 -2 0 7 4 11 9 7 16
-10 21 12 6 25 -8 7 -12 16 -9 21 3 5 0 9 -6 9 -6 0 -8 6 -4 13 5 9 4 9 -6 0
-11 -10 -11 -16 3 -31 9 -10 14 -22 11 -25 -4 -4 -13 1 -19 10 -11 15 -15 15
-29 4 -28 -23 -20 17 9 43 14 13 25 28 25 34 0 6 7 18 16 27 12 11 13 19 5 29
-6 7 -8 16 -4 19 3 4 -1 7 -10 7 -14 0 -15 -3 -6 -18 9 -14 9 -24 1 -38 -6
-10 -12 -14 -12 -7 0 6 -9 9 -22 5 -14 -3 -19 -1 -14 6 3 6 15 9 26 7 24 -5
24 -7 2 38 -17 36 -17 36 -41 18z m38 -46 c1 -5 -6 -2 -15 7 -10 9 -13 21 -8
29 5 9 9 8 15 -7 4 -10 8 -23 8 -29z m-184 -15 c0 -22 -21 -22 -22 1 -1 12 3
19 10 16 7 -2 12 -10 12 -17z m102 3 c4 -9 2 -18 -5 -21 -6 -2 -8 -10 -5 -19
4 -10 2 -14 -4 -10 -12 7 -23 54 -15 62 10 10 23 5 29 -12z m-93 -48 c-9 -13
-13 -29 -10 -34 4 -5 2 -12 -4 -16 -7 -4 -7 -12 0 -25 6 -12 7 -21 1 -25 -6
-3 -15 3 -20 13 -12 22 -6 65 9 70 6 2 7 8 4 13 -7 13 15 41 27 33 5 -3 2 -16
-7 -29z m186 9 c0 -14 -2 -15 -17 -3 -15 12 -16 12 -10 -3 3 -10 2 -18 -3 -18
-6 0 -10 -7 -10 -15 0 -8 -5 -15 -11 -15 -5 0 -7 -5 -3 -12 5 -7 3 -8 -6 -3
-10 6 -12 4 -7 -9 5 -13 3 -15 -12 -7 -20 11 -50 44 -35 39 14 -5 55 28 46 38
-4 4 1 3 10 -4 14 -11 16 -11 12 5 -4 14 1 19 20 21 18 1 26 -3 26 -14z"/>
<path d="M514 1749 c-8 -14 14 -19 25 -6 8 10 7 14 -5 14 -8 0 -17 -4 -20 -8z"/>
<path d="M997 1898 c-2 -7 -1 -22 3 -33 6 -16 8 -13 7 13 0 35 -2 39 -10 20z"/>
<path d="M1980 1898 c0 -7 3 -31 7 -53 7 -40 7 -40 13 -10 7 36 1 75 -11 75
-5 0 -9 -6 -9 -12z"/>
<path d="M445 1891 c-6 -11 13 -26 22 -17 4 3 1 6 -6 6 -7 0 -9 5 -6 10 3 6 4
10 1 10 -3 0 -7 -4 -11 -9z"/>
<path d="M1413 1845 c0 -33 2 -45 4 -27 2 18 2 45 0 60 -2 15 -4 0 -4 -33z"/>
<path d="M1721 1884 c0 -11 3 -14 6 -6 3 7 2 16 -1 19 -3 4 -6 -2 -5 -13z"/>
<path d="M2050 1882 c0 -15 4 -20 16 -15 9 3 12 9 7 12 -4 3 -11 10 -15 15 -5
5 -8 0 -8 -12z"/>
<path d="M715 1871 c-6 -11 13 -26 22 -17 4 3 1 6 -6 6 -7 0 -9 5 -6 10 3 6 4
10 1 10 -3 0 -7 -4 -11 -9z"/>
<path d="M955 1859 c-9 -28 -2 -33 13 -9 6 11 8 21 3 25 -5 3 -13 -4 -16 -16z"/>
<path d="M650 1856 c0 -8 4 -17 9 -20 5 -4 7 3 4 14 -6 23 -13 26 -13 6z"/>
<path d="M1060 1851 c5 -11 15 -23 20 -26 6 -3 10 -13 10 -21 0 -13 -10 -15
-47 -12 -48 5 -121 -7 -78 -12 11 -1 44 -2 73 -1 31 1 52 -2 52 -8 0 -6 5 -11
11 -11 7 0 9 12 5 33 -3 17 -7 37 -8 44 -1 7 -5 10 -10 7 -4 -3 -8 2 -8 10 0
9 -7 16 -15 16 -12 0 -14 -4 -5 -19z"/>
<path d="M1600 1853 c0 -6 -3 -20 -6 -30 -7 -17 -6 -17 12 -1 14 14 16 21 6
30 -8 8 -12 9 -12 1z"/>
<path d="M2051 1834 c0 -11 3 -14 6 -6 3 7 2 16 -1 19 -3 4 -6 -2 -5 -13z"/>
<path d="M2588 1845 c-3 -4 -4 -31 -2 -60 4 -44 2 -55 -13 -64 -16 -9 -16 -10
-1 -11 12 0 15 -6 11 -22 -4 -17 -3 -20 6 -12 8 7 11 39 9 93 -2 46 -6 80 -10
76z"/>
<path d="M990 1825 c14 -7 27 -10 30 -6 3 5 12 10 20 13 8 3 -5 5 -30 6 -43 1
-44 0 -20 -13z"/>
<path d="M1630 1825 c-11 -13 -11 -18 0 -28 9 -9 11 -9 6 0 -3 6 -2 14 4 18 9
5 15 -24 11 -49 -1 -5 5 -4 13 3 12 10 17 9 25 -8 14 -25 14 -34 1 -26 -6 3
-7 -1 -3 -10 5 -13 7 -14 14 -3 10 14 13 2 10 -37 -2 -15 0 -17 7 -6 8 11 10
11 15 0 3 -8 5 -2 4 13 -1 15 -4 25 -8 22 -10 -6 -20 26 -12 39 3 7 3 9 -2 5
-4 -4 -22 13 -40 38 -28 39 -34 43 -45 29z"/>
<path d="M2891 1824 c0 -11 3 -14 6 -6 3 7 2 16 -1 19 -3 4 -6 -2 -5 -13z"/>
<path d="M87 1823 c-13 -12 -7 -23 11 -22 10 0 12 3 4 6 -6 2 -10 9 -6 14 6
10 0 12 -9 2z"/>
<path d="M1550 1821 c0 -6 4 -11 9 -11 5 0 12 -8 14 -17 4 -15 5 -15 6 -2 0 9
-6 22 -14 29 -10 9 -15 9 -15 1z"/>
<path d="M650 1812 c0 -2 8 -15 19 -28 13 -17 19 -42 20 -91 1 -36 3 -69 6
-71 3 -3 5 39 4 94 0 56 -4 91 -8 80 -5 -14 -10 -16 -15 -8 -4 7 -5 16 -2 20
3 5 -1 9 -9 9 -8 0 -15 -2 -15 -5z"/>
<path d="M2723 1710 c-1 -100 5 -127 22 -100 3 6 2 10 -4 10 -9 0 -6 117 4
148 3 6 -1 12 -7 12 -9 0 -9 3 0 12 16 16 15 28 -1 28 -10 0 -13 -27 -14 -110z"/>
<path d="M10 1765 c0 -27 2 -46 5 -44 7 8 9 78 2 85 -4 4 -7 -14 -7 -41z"/>
<path d="M38 1803 c7 -3 16 -2 19 1 4 3 -2 6 -13 5 -11 0 -14 -3 -6 -6z"/>
<path d="M165 1800 c3 -5 14 -10 23 -10 15 0 15 2 2 10 -20 13 -33 13 -25 0z"/>
<path d="M290 1800 l-25 -8 28 -1 c15 -1 27 4 27 9 0 6 -1 10 -2 9 -2 -1 -14
-5 -28 -9z"/>
<path d="M335 1800 c-3 -5 -1 -10 4 -10 6 0 11 5 11 10 0 6 -2 10 -4 10 -3 0
-8 -4 -11 -10z"/>
<path d="M222 1780 c0 -14 2 -19 5 -12 2 6 2 18 0 25 -3 6 -5 1 -5 -13z"/>
<path d="M638 1785 c5 -11 8 -28 7 -37 -4 -25 12 -32 18 -8 3 12 -3 29 -14 43
-18 19 -19 19 -11 2z"/>
<path d="M1592 1789 c2 -6 7 -10 12 -9 9 2 26 -19 26 -32 0 -12 -24 -4 -36 11
-10 12 -13 11 -23 -8 -7 -13 -10 -25 -7 -29 3 -3 6 1 6 9 1 10 4 8 11 -4 6
-10 8 -21 5 -24 -9 -9 14 -44 25 -38 12 8 11 -6 -1 -25 -8 -12 -10 -12 -10 -1
0 8 -3 11 -7 8 -8 -8 -36 30 -29 41 2 4 -6 12 -18 18 -18 8 -22 7 -22 -7 0
-10 4 -15 8 -13 4 2 18 -11 31 -31 13 -19 27 -32 30 -28 4 4 4 -8 1 -25 l-6
-32 63 2 64 1 -60 7 c-33 4 -54 7 -47 8 9 1 11 9 6 24 -6 20 -5 21 9 10 13
-11 18 -9 34 15 10 15 24 33 31 39 12 8 11 12 -2 23 -24 20 -50 7 -36 -18 14
-26 13 -31 -5 -25 -8 4 -12 11 -8 17 4 6 1 7 -7 2 -10 -6 -12 -4 -6 11 4 10 4
15 0 11 -7 -7 -33 21 -34 36 0 12 24 3 37 -13 9 -11 12 -12 13 -2 0 7 5 10 12
6 12 -8 7 4 -24 49 -19 26 -43 38 -36 16z m16 -114 c-3 -3 -9 2 -12 12 -6 14
-5 15 5 6 7 -7 10 -15 7 -18z m62 10 c0 -8 -2 -15 -4 -15 -2 0 -6 7 -10 15 -3
8 -1 15 4 15 6 0 10 -7 10 -15z m-27 -52 c-3 -7 -6 -13 -8 -13 -2 0 -5 6 -8
13 -3 8 1 14 8 14 7 0 11 -6 8 -14z"/>
<path d="M1957 1788 c6 -11 43 -10 43 1 0 5 -11 8 -24 7 -13 0 -22 -4 -19 -8z"/>
<path d="M1984 1735 c0 -19 3 -35 8 -35 4 0 8 16 8 35 0 46 -15 46 -16 0z"/>
<path d="M233 1753 c-15 -6 -17 -39 -3 -48 6 -3 7 1 4 10 -4 8 -1 22 6 30 13
16 13 16 -7 8z"/>
<path d="M1408 1753 c6 -2 18 -2 25 0 6 3 1 5 -13 5 -14 0 -19 -2 -12 -5z"/>
<path d="M1733 1745 c0 -8 4 -12 9 -9 5 3 6 10 3 15 -9 13 -12 11 -12 -6z"/>
<path d="M1312 1722 c2 -10 11 -16 21 -14 9 2 17 -2 17 -8 0 -6 -5 -8 -12 -4
-8 5 -9 2 -5 -11 4 -9 3 -23 -3 -30 -7 -8 -7 -16 -2 -19 6 -3 12 4 15 15 3 12
10 18 16 14 6 -3 11 -1 11 4 0 6 -4 11 -9 11 -5 0 -7 8 -5 18 3 11 -4 21 -21
29 -23 10 -26 10 -23 -5z"/>
<path d="M1397 1733 c-8 -14 12 -53 26 -53 14 0 64 -99 72 -142 3 -12 8 -24
12 -27 19 -14 30 -49 25 -79 -3 -23 0 -33 12 -38 29 -11 35 0 21 39 -9 26 -9
35 -1 28 8 -7 10 0 8 29 -3 31 -7 37 -17 27 -7 -7 -10 -19 -8 -27 14 -40 -26
33 -52 95 -15 39 -34 77 -40 85 -7 8 -18 26 -24 40 -11 22 -11 23 2 8 19 -24
47 -23 47 2 0 17 -7 20 -39 20 -22 0 -42 -3 -44 -7z"/>
<path d="M1910 1735 c0 -5 5 -17 10 -25 5 -8 10 -10 10 -5 0 6 -5 17 -10 25
-5 8 -10 11 -10 5z"/>
<path d="M2152 1720 c0 -14 2 -19 5 -12 2 6 2 18 0 25 -3 6 -5 1 -5 -13z"/>
<path d="M2652 1720 c0 -14 2 -19 5 -12 2 6 2 18 0 25 -3 6 -5 1 -5 -13z"/>
<path d="M11 1694 c0 -11 3 -14 6 -6 3 7 2 16 -1 19 -3 4 -6 -2 -5 -13z"/>
<path d="M85 1700 c3 -5 8 -10 11 -10 2 0 4 5 4 10 0 6 -5 10 -11 10 -5 0 -7
-4 -4 -10z"/>
<path d="M2462 1685 c0 -16 2 -22 5 -12 2 9 2 23 0 30 -3 6 -5 -1 -5 -18z"/>
<path d="M251 1688 c-2 -25 15 -30 30 -10 13 15 12 16 -3 4 -14 -11 -17 -10
-21 5 -4 16 -5 16 -6 1z"/>
<path d="M1311 1674 c0 -11 3 -14 6 -6 3 7 2 16 -1 19 -3 4 -6 -2 -5 -13z"/>
<path d="M2433 1673 c-3 -10 -8 -22 -11 -27 -3 -5 0 -6 6 -2 6 3 13 -2 15 -11
3 -10 5 -1 6 20 1 40 -6 48 -16 20z"/>
<path d="M372 1660 c7 -11 17 -20 22 -20 5 0 1 9 -9 20 -10 11 -20 20 -22 20
-2 0 2 -9 9 -20z"/>
<path d="M714 1663 c2 -9 8 -18 15 -19 6 -1 7 0 2 2 -6 3 -7 12 -4 20 3 8 1
14 -5 14 -6 0 -9 -8 -8 -17z"/>
<path d="M1264 1665 c-13 -10 -14 -14 -5 -15 11 0 11 -3 0 -17 -12 -15 -12
-16 3 -10 28 10 30 -9 3 -21 -14 -7 -25 -16 -25 -22 0 -6 11 -3 24 6 25 15 25
15 46 -34 13 -30 31 -54 46 -60 15 -7 24 -8 24 -2 0 6 -7 10 -15 10 -9 0 -18
12 -21 30 -4 17 -11 30 -16 30 -5 0 -7 4 -4 9 4 5 3 11 -1 13 -15 6 -45 76
-39 87 10 15 3 14 -20 -4z"/>
<path d="M10 1661 c0 -6 4 -13 10 -16 6 -3 7 1 4 9 -7 18 -14 21 -14 7z"/>
<path d="M440 1656 c0 -2 7 -9 15 -16 13 -11 14 -10 9 4 -5 14 -24 23 -24 12z"/>
<path d="M1410 1652 c0 -7 -3 -11 -7 -9 -5 3 -9 -11 -9 -32 l-2 -36 14 35 14
35 -6 -38 c-3 -21 -8 -46 -11 -54 -4 -10 -2 -14 4 -10 15 10 25 85 14 105 -7
11 -11 12 -11 4z"/>
<path d="M1684 1651 c4 -5 1 -11 -5 -13 -8 -3 -7 -7 2 -15 11 -9 14 -6 15 13
1 13 -2 24 -8 24 -5 0 -7 -4 -4 -9z"/>
<path d="M2578 1625 c2 -19 6 -35 8 -35 2 0 4 16 4 35 0 19 -4 35 -8 35 -4 0
-6 -16 -4 -35z"/>
<path d="M119 1601 c4 -49 7 -47 13 10 2 20 -1 36 -7 36 -6 0 -8 -19 -6 -46z"/>
<path d="M168 1643 c12 -2 30 -2 40 0 9 3 -1 5 -23 4 -22 0 -30 -2 -17 -4z"/>
<path d="M280 1639 c0 -5 5 -7 10 -4 6 3 10 8 10 11 0 2 -4 4 -10 4 -5 0 -10
-5 -10 -11z"/>
<path d="M318 1643 c7 -3 16 -2 19 1 4 3 -2 6 -13 5 -11 0 -14 -3 -6 -6z"/>
<path d="M786 1635 c4 -8 8 -15 10 -15 2 0 4 7 4 15 0 8 -4 15 -10 15 -5 0 -7
-7 -4 -15z"/>
<path d="M1350 1640 c0 -5 5 -10 11 -10 5 0 7 5 4 10 -3 6 -8 10 -11 10 -2 0
-4 -4 -4 -10z"/>
<path d="M1547 1629 c4 -13 8 -18 11 -10 2 7 -1 18 -6 23 -8 8 -9 4 -5 -13z"/>
<path d="M1916 1634 c-3 -9 -2 -23 4 -32 7 -14 9 -10 10 16 0 35 -5 41 -14 16z"/>
<path d="M2800 1639 c0 -5 5 -7 10 -4 6 3 10 8 10 11 0 2 -4 4 -10 4 -5 0 -10
-5 -10 -11z"/>
<path d="M1970 1620 c0 -6 7 -10 15 -10 8 0 15 2 15 4 0 2 -7 6 -15 10 -8 3
-15 1 -15 -4z"/>
<path d="M2123 1623 c9 -2 23 -2 30 0 6 3 -1 5 -18 5 -16 0 -22 -2 -12 -5z"/>
<path d="M56 1609 c11 -19 4 -113 -9 -121 -9 -6 -9 -8 1 -8 6 0 12 -11 12 -25
0 -16 -6 -25 -15 -25 -8 0 -15 -9 -15 -20 0 -13 5 -18 15 -14 11 5 13 2 9 -10
-3 -9 -1 -16 5 -16 15 0 14 23 -1 38 -9 9 -9 12 0 12 8 0 12 25 12 84 0 48 4
86 10 88 6 2 1 9 -11 16 -16 11 -19 11 -13 1z"/>
<path d="M1344 1608 c-4 -7 -3 -8 4 -4 7 4 12 1 12 -8 0 -8 -6 -17 -12 -19
-10 -4 -10 -6 0 -6 7 -1 10 -5 7 -11 -3 -5 0 -10 7 -10 10 0 10 -2 1 -8 -8 -5
-9 -13 -3 -22 8 -12 10 -11 11 5 1 11 0 25 -1 30 -2 6 -2 22 -1 38 1 28 -12
36 -25 15z"/>
<path d="M2300 1612 c0 -4 10 -13 23 -21 22 -14 22 -14 3 8 -20 22 -26 25 -26
13z"/>
<path d="M2780 1616 c0 -9 30 -14 35 -6 4 6 -3 10 -14 10 -12 0 -21 -2 -21 -4z"/>
<path d="M2236 1588 c22 -27 36 -38 47 -38 5 0 -4 14 -20 30 -32 35 -55 41
-27 8z"/>
<path d="M345 1580 c21 -24 26 -25 19 -6 -3 8 -13 17 -22 21 -13 5 -13 2 3
-15z"/>
<path d="M1430 1558 c-11 -23 -20 -44 -20 -47 0 -10 30 37 40 63 15 41 3 30
-20 -16z"/>
<path d="M2967 1585 c-5 -11 0 -15 16 -15 12 0 18 4 12 8 -5 4 -13 11 -16 15
-4 4 -9 1 -12 -8z"/>
<path d="M2720 1578 c0 -4 14 -8 30 -8 17 0 30 2 30 4 0 2 -13 6 -30 8 -16 3
-30 1 -30 -4z"/>
<path d="M151 1564 c0 -11 3 -14 6 -6 3 7 2 16 -1 19 -3 4 -6 -2 -5 -13z"/>
<path d="M326 1565 c4 -8 11 -15 16 -15 6 0 5 6 -2 15 -7 8 -14 15 -16 15 -2
0 -1 -7 2 -15z"/>
<path d="M720 1559 c1 -23 79 -166 80 -146 0 11 -16 49 -36 85 -42 77 -44 80
-44 61z"/>
<path d="M1561 1554 c0 -11 3 -14 6 -6 3 7 2 16 -1 19 -3 4 -6 -2 -5 -13z"/>
<path d="M1462 1540 c0 -14 2 -19 5 -12 2 6 2 18 0 25 -3 6 -5 1 -5 -13z"/>
<path d="M1980 1550 c-9 -6 -10 -10 -3 -10 6 0 14 -8 16 -17 3 -10 4 -6 4 10
-1 15 -2 27 -2 27 0 0 -7 -5 -15 -10z"/>
<path d="M2100 1549 c0 -5 4 -8 9 -5 4 3 19 -3 31 -14 29 -25 40 -17 15 10
-19 21 -55 27 -55 9z"/>
<path d="M2466 1551 c-4 -7 -5 -15 -2 -18 9 -9 19 4 14 18 -4 11 -6 11 -12 0z"/>
<path d="M2735 1550 c-3 -5 0 -7 9 -4 8 3 25 0 38 -7 21 -11 22 -11 9 4 -15
19 -46 23 -56 7z"/>
<path d="M2980 1546 c0 -9 5 -16 10 -16 6 0 10 4 10 9 0 6 -4 13 -10 16 -5 3
-10 -1 -10 -9z"/>
<path d="M122 1450 c0 -58 3 -96 7 -85 4 10 7 41 5 67 -2 37 1 48 14 51 16 4
16 5 0 6 -11 1 -18 12 -21 34 -2 17 -4 -15 -5 -73z"/>
<path d="M408 1543 c17 -2 47 -2 65 0 17 2 3 4 -33 4 -36 0 -50 -2 -32 -4z"/>
<path d="M15 1531 c-8 -13 -10 -259 -2 -267 3 -3 7 57 9 135 2 78 2 141 1 141
-1 0 -4 -4 -8 -9z"/>
<path d="M363 1511 c0 -11 5 -17 9 -15 11 7 10 34 -1 34 -6 0 -9 -9 -8 -19z"/>
<path d="M410 1517 c0 -5 6 -7 14 -4 7 3 17 2 22 -3 5 -5 17 -3 27 5 16 11 13
13 -23 12 -22 0 -40 -5 -40 -10z"/>
<path d="M551 1523 c5 -31 -2 -39 -31 -35 -29 4 -30 3 -30 -32 0 -29 4 -36 20
-36 11 0 20 5 20 11 0 5 -5 7 -12 3 -8 -5 -9 -2 -5 10 4 10 7 20 7 22 0 2 7 4
16 4 8 0 13 -4 10 -8 -3 -5 2 -9 10 -9 8 0 13 6 10 14 -3 7 -1 13 4 13 6 0 10
-4 10 -10 0 -5 8 -6 17 -3 14 6 12 8 -9 15 -18 6 -25 14 -21 24 3 8 12 13 19
10 8 -3 14 -1 14 4 0 6 -11 10 -25 10 -14 0 -24 -3 -24 -7z"/>
<path d="M2750 1519 c0 -5 5 -7 10 -4 6 3 10 8 10 11 0 2 -4 4 -10 4 -5 0 -10
-5 -10 -11z"/>
<path d="M1288 1506 c-10 -7 -18 -17 -18 -22 0 -4 5 -3 12 4 7 7 17 12 23 12
5 0 1 -7 -9 -15 -10 -8 -22 -12 -27 -10 -4 3 -37 -28 -72 -67 -36 -40 -101
-104 -145 -143 -59 -51 -76 -72 -66 -78 9 -5 33 8 71 39 62 50 77 69 68 83 -3
5 0 13 6 17 7 4 9 3 5 -4 -3 -6 -2 -13 4 -17 5 -3 10 1 10 11 0 9 34 49 75 89
63 61 78 72 102 68 27 -4 27 -4 8 12 -11 9 -19 21 -17 26 3 13 -10 11 -30 -5z
m-203 -237 c-22 -22 -53 -50 -70 -61 -16 -11 -1 7 35 41 75 69 92 80 35 20z"/>
<path d="M86 1501 c-5 -8 0 -50 7 -57 2 -2 4 12 5 31 1 35 -2 43 -12 26z"/>
<path d="M2045 1501 c-3 -5 -2 -12 3 -15 5 -3 9 1 9 9 0 17 -3 19 -12 6z"/>
<path d="M2311 1496 c-7 -8 -8 -17 -3 -20 6 -3 12 3 15 14 6 24 4 25 -12 6z"/>
<path d="M441 1483 c7 -12 16 -19 19 -15 3 4 10 11 15 15 6 5 3 7 -6 4 -9 -3
-22 0 -29 6 -9 8 -8 5 1 -10z"/>
<path d="M2952 1470 c0 -14 2 -19 5 -12 2 6 2 18 0 25 -3 6 -5 1 -5 -13z"/>
<path d="M1706 1465 c-3 -9 0 -15 9 -15 8 0 15 7 15 15 0 8 -4 15 -9 15 -5 0
-11 -7 -15 -15z"/>
<path d="M30 1459 c0 -5 5 -7 10 -4 6 3 10 8 10 11 0 2 -4 4 -10 4 -5 0 -10
-5 -10 -11z"/>
<path d="M2058 1463 c7 -3 16 -2 19 1 4 3 -2 6 -13 5 -11 0 -14 -3 -6 -6z"/>
<path d="M2090 1466 c0 -8 61 -12 66 -4 3 4 -11 8 -30 8 -20 0 -36 -2 -36 -4z"/>
<path d="M222 1435 c0 -16 2 -22 5 -12 2 9 2 23 0 30 -3 6 -5 -1 -5 -18z"/>
<path d="M690 1454 c0 -5 7 -18 15 -28 8 -11 15 -16 15 -10 0 5 -7 18 -15 28
-8 11 -15 16 -15 10z"/>
<path d="M2780 1444 c0 -8 5 -12 10 -9 6 4 8 11 5 16 -9 14 -15 11 -15 -7z"/>
<path d="M441 1434 c0 -11 3 -14 6 -6 3 7 2 16 -1 19 -3 4 -6 -2 -5 -13z"/>
<path d="M590 1435 c-7 -9 -8 -15 -2 -15 5 0 12 7 16 15 3 8 4 15 2 15 -2 0
-9 -7 -16 -15z"/>
<path d="M2257 1433 c4 -17 12 -23 32 -22 20 1 22 2 6 6 -11 3 -25 13 -32 22
-10 14 -11 13 -6 -6z"/>
<path d="M350 1420 c7 -12 7 -20 1 -20 -5 0 -8 -11 -7 -25 4 -38 16 -43 16 -7
l0 32 122 0 c67 0 119 2 116 5 -3 3 -57 6 -122 6 -91 1 -116 4 -116 15 0 8 -5
14 -10 14 -7 0 -7 -6 0 -20z"/>
<path d="M545 1430 c3 -5 11 -10 16 -10 6 0 7 5 4 10 -3 6 -11 10 -16 10 -6 0
-7 -4 -4 -10z"/>
<path d="M2010 1430 c-13 -8 -12 -10 3 -10 9 0 17 5 17 10 0 12 -1 12 -20 0z"/>
<path d="M2892 1424 c-17 -12 -20 -21 -16 -47 4 -24 3 -28 -5 -17 -7 10 -11
11 -11 3 0 -8 -14 -13 -32 -14 -18 0 -51 -4 -73 -9 -32 -7 -24 -8 38 -5 68 4
77 2 67 -10 -10 -12 -9 -15 4 -15 9 0 16 7 16 15 0 11 11 15 36 15 28 0 35 -3
30 -15 -4 -11 2 -15 25 -15 36 0 36 23 0 28 -15 3 -21 8 -17 19 8 19 -3 63
-15 63 -6 0 -5 -9 1 -21 15 -27 6 -49 -20 -49 -12 0 -18 5 -15 10 4 6 10 8 15
5 6 -4 3 65 -4 72 -1 2 -12 -4 -24 -13z m5 -46 c-3 -8 -6 -5 -6 6 -1 11 2 17
5 13 3 -3 4 -12 1 -19z"/>
<path d="M87 1418 c-2 -7 -1 -22 4 -33 6 -16 8 -14 8 13 1 33 -4 41 -12 20z"/>
<path d="M2543 1415 c-18 -20 -17 -22 14 -30 l26 -6 -20 -21 c-21 -20 -50 -17
-37 4 5 7 2 8 -5 3 -10 -6 -10 -10 1 -21 11 -12 19 -11 50 4 21 9 37 20 38 23
0 4 -13 12 -29 19 -19 7 -28 17 -24 26 7 18 2 17 -14 -1z"/>
<path d="M2670 1409 c0 -5 5 -7 10 -4 6 3 10 8 10 11 0 2 -4 4 -10 4 -5 0 -10
-5 -10 -11z"/>
<path d="M220 1368 c0 -22 -3 -29 -9 -20 -7 11 -9 11 -13 0 -4 -9 2 -14 16
-16 19 -1 21 3 18 33 -5 44 -12 45 -12 3z"/>
<path d="M2810 1391 c0 -11 26 -22 34 -14 12 12 5 23 -14 23 -11 0 -20 -4 -20
-9z"/>
<path d="M1317 1370 c-8 -11 -17 -17 -20 -13 -4 3 -7 1 -7 -5 0 -20 17 -13 34
13 19 30 13 34 -7 5z"/>
<path d="M1770 1379 c0 -5 -4 -7 -10 -4 -5 3 -10 1 -10 -4 0 -6 7 -11 15 -11
8 0 15 7 15 15 0 8 -2 15 -5 15 -3 0 -5 -5 -5 -11z"/>
<path d="M2040 1380 c-12 -8 -9 -10 13 -10 16 0 26 4 22 10 -8 12 -16 12 -35
0z"/>
<path d="M2203 1383 c9 -2 23 -2 30 0 6 3 -1 5 -18 5 -16 0 -22 -2 -12 -5z"/>
<path d="M2730 1376 c0 -20 11 -25 35 -15 18 7 18 8 -5 10 -21 1 -19 3 10 9
l35 7 -37 2 c-27 1 -38 -3 -38 -13z"/>
<path d="M32 1343 c-2 -34 1 -41 13 -37 8 4 15 14 15 23 0 13 -2 14 -9 2 -7
-11 -11 -6 -14 20 -4 32 -4 31 -5 -8z"/>
<path d="M1675 1369 c-4 -5 8 -9 26 -9 35 0 35 8 1 15 -12 2 -24 0 -27 -6z"/>
<path d="M1850 1370 c0 -5 4 -10 9 -10 6 0 13 5 16 10 3 6 -1 10 -9 10 -9 0
-16 -4 -16 -10z"/>
<path d="M1913 1373 c15 -2 39 -2 55 0 15 2 2 4 -28 4 -30 0 -43 -2 -27 -4z"/>
<path d="M2275 1369 c-84 -5 -643 -31 -712 -32 -7 0 -13 -4 -13 -9 0 -4 19 -6
43 -3 23 2 209 12 412 20 204 9 374 20 380 26 5 5 7 8 5 8 -3 -1 -54 -5 -115
-10z"/>
<path d="M2436 1372 c-2 -4 11 -6 30 -4 19 2 34 6 34 8 0 8 -59 4 -64 -4z"/>
<path d="M314 1361 c5 -7 0 -18 -10 -26 -17 -13 -15 -14 26 -13 28 1 35 3 18
5 -17 3 -25 9 -22 18 3 7 0 16 -7 21 -8 5 -10 3 -5 -5z"/>
<path d="M405 1360 l-30 -8 32 -1 c17 0 35 4 38 9 7 11 3 11 -40 0z"/>
<path d="M488 1363 c17 -2 47 -2 65 0 17 2 3 4 -33 4 -36 0 -50 -2 -32 -4z"/>
<path d="M88 1340 c-7 -24 -3 -38 8 -28 3 4 4 17 2 30 l-3 23 -7 -25z"/>
<path d="M2225 1339 c-49 -6 -49 -6 18 -7 65 -2 85 2 50 9 -10 3 -40 1 -68 -2z"/>
<path d="M120 1325 c0 -8 6 -15 13 -15 8 0 14 7 14 15 0 8 -6 15 -14 15 -7 0
-13 -7 -13 -15z"/>
<path d="M2430 1329 c-41 -4 -124 -10 -185 -14 -60 -3 -135 -8 -165 -10 -30
-3 -90 -7 -134 -9 -43 -3 -81 -8 -85 -12 -11 -11 635 28 646 40 11 11 -1 12
-77 5z"/>
<path d="M411 1321 c-10 -7 -7 -9 12 -8 15 1 27 5 27 10 0 10 -22 9 -39 -2z"/>
<path d="M729 1324 c-1 -5 -1 -12 0 -16 2 -12 -14 -9 -27 4 -7 7 -12 8 -12 2
0 -15 49 -36 62 -28 6 4 8 3 5 -3 -4 -6 23 -24 60 -41 l66 -31 29 22 30 22
-49 6 c-49 5 -113 31 -145 58 -10 8 -19 10 -19 5z m114 -64 c26 -8 47 -18 47
-23 0 -10 -29 -2 -85 24 -44 21 -35 20 38 -1z"/>
<path d="M1460 1311 c0 -11 4 -22 9 -25 5 -3 8 5 7 19 -1 29 -16 34 -16 6z"/>
<path d="M2023 1323 c9 -2 25 -2 35 0 9 3 1 5 -18 5 -19 0 -27 -2 -17 -5z"/>
<path d="M2905 1320 c3 -5 10 -10 16 -10 5 0 9 5 9 10 0 6 -7 10 -16 10 -8 0
-12 -4 -9 -10z"/>
<path d="M168 1313 c6 -2 18 -2 25 0 6 3 1 5 -13 5 -14 0 -19 -2 -12 -5z"/>
<path d="M218 1313 c7 -3 16 -2 19 1 4 3 -2 6 -13 5 -11 0 -14 -3 -6 -6z"/>
<path d="M870 1310 c-13 -8 -12 -10 3 -10 9 0 17 5 17 10 0 12 -1 12 -20 0z"/>
<path d="M1009 1299 c-23 -19 -23 -20 -2 -10 12 6 25 16 28 21 10 16 -1 12
-26 -11z"/>
<path d="M1775 1310 c-3 -5 -2 -10 4 -10 5 0 13 5 16 10 3 6 2 10 -4 10 -5 0
-13 -4 -16 -10z"/>
<path d="M1838 1313 c17 -2 47 -2 65 0 17 2 3 4 -33 4 -36 0 -50 -2 -32 -4z"/>
<path d="M1575 1300 l-40 -7 37 -2 c20 0 40 4 43 9 3 6 5 9 3 9 -2 -1 -21 -5
-43 -9z"/>
<path d="M1657 1303 c18 -2 50 -2 70 0 21 2 7 4 -32 4 -38 0 -55 -2 -38 -4z"/>
<path d="M2507 1294 c3 -8 14 -14 24 -14 24 0 15 25 -11 27 -13 1 -17 -3 -13
-13z"/>
<path d="M43 1293 c-19 -7 -16 -23 5 -23 13 0 14 -2 4 -9 -15 -9 -24 -81 -11
-81 5 0 10 5 10 10 1 6 3 15 4 20 1 6 3 17 4 25 0 8 9 15 19 15 14 0 15 2 2
10 -13 8 -13 10 2 10 9 0 18 -10 21 -22 4 -22 4 -21 5 2 2 37 -13 57 -31 41
-8 -6 -17 -8 -19 -3 -1 5 -9 7 -15 5z"/>
<path d="M120 1283 c0 -17 24 -19 78 -8 39 9 24 20 -28 20 -34 0 -50 -4 -50
-12z"/>
<path d="M284 1284 c3 -9 6 -17 6 -18 0 -1 16 0 35 2 55 7 38 32 -22 32 -19 0
-24 -4 -19 -16z"/>
<path d="M2400 1292 c0 -4 16 -6 35 -4 19 2 35 6 35 8 0 2 -16 4 -35 4 -19 0
-35 -4 -35 -8z"/>
<path d="M2923 1293 c15 -2 39 -2 55 0 15 2 2 4 -28 4 -30 0 -43 -2 -27 -4z"/>
<path d="M2730 1281 c0 -4 33 -6 73 -4 102 6 106 11 10 12 -46 1 -83 -3 -83
-8z"/>
<path d="M2228 1273 c12 -2 32 -2 45 0 12 2 2 4 -23 4 -25 0 -35 -2 -22 -4z"/>
<path d="M209 1251 c-15 -17 -12 -18 68 -19 62 -1 83 2 80 11 -4 13 -34 16
-58 5 -9 -4 -21 -2 -27 4 -9 9 -15 9 -24 0 -17 -17 -29 -15 -22 3 8 19 3 18
-17 -4z"/>
<path d="M2083 1263 c9 -2 25 -2 35 0 9 3 1 5 -18 5 -19 0 -27 -2 -17 -5z"/>
<path d="M2815 1260 c43 -11 103 -12 86 -1 -7 5 -36 8 -65 8 -43 1 -46 -1 -21
-7z"/>
<path d="M1301 1244 c0 -11 3 -14 6 -6 3 7 2 16 -1 19 -3 4 -6 -2 -5 -13z"/>
<path d="M1770 1249 c-29 -5 -26 -7 23 -8 31 0 57 2 57 7 0 9 -33 9 -80 1z"/>
<path d="M1923 1253 c15 -2 37 -2 50 0 12 2 0 4 -28 4 -27 0 -38 -2 -22 -4z"/>
<path d="M1580 1237 c-61 -12 -46 -15 50 -8 73 6 78 7 38 11 -25 3 -65 1 -88
-3z"/>
<path d="M2568 1243 c7 -3 16 -2 19 1 4 3 -2 6 -13 5 -11 0 -14 -3 -6 -6z"/>
<path d="M388 1233 c12 -2 30 -2 40 0 9 3 -1 5 -23 4 -22 0 -30 -2 -17 -4z"/>
<path d="M1375 1210 c-9 -18 -14 -34 -11 -37 2 -3 12 9 21 27 9 18 14 34 11
37 -2 3 -12 -9 -21 -27z"/>
<path d="M128 1224 c-12 -11 -10 -54 2 -54 6 0 10 -11 10 -24 0 -13 9 -35 20
-49 l20 -26 -22 -4 c-13 -2 -3 -5 22 -6 25 -1 62 -4 83 -7 33 -6 37 -4 37 15
0 12 6 21 15 21 8 0 15 -9 15 -20 0 -22 25 -27 50 -10 11 8 8 9 -12 4 -21 -5
-28 -2 -28 8 0 11 22 18 88 25 l87 10 -115 -3 c-82 -3 -116 0 -122 9 -6 9 -8
9 -8 0 0 -7 -9 -13 -21 -13 -11 0 -18 4 -15 8 2 4 -12 7 -32 5 -29 -2 -33 -1
-17 6 18 9 17 10 -7 10 -19 1 -28 6 -28 17 0 16 28 15 151 -2 l35 -5 -4 35 -4
36 -57 -5 c-39 -4 -50 -3 -36 4 19 9 18 10 -5 10 -14 1 -41 4 -60 7 -19 3 -38
2 -42 -2z m190 -46 c2 -8 -1 -7 -7 2 -9 13 -11 13 -11 -2 0 -20 -14 -22 -97
-12 -29 4 -54 12 -57 20 -4 10 14 12 82 8 59 -2 88 -8 90 -16z m-52 -88 c13 0
24 -4 24 -9 0 -13 -89 -6 -103 9 -10 10 -6 11 22 6 18 -3 44 -6 57 -6z"/>
<path d="M4 1206 c-3 -7 -4 -33 -2 -57 3 -43 4 -42 8 14 5 58 4 68 -6 43z"/>
<path d="M458 1213 c7 -3 16 -2 19 1 4 3 -2 6 -13 5 -11 0 -14 -3 -6 -6z"/>
<path d="M386 1198 c3 -4 -7 -8 -22 -8 -15 0 -25 -2 -23 -4 2 -2 47 -1 99 3
69 6 81 9 45 10 -27 2 -62 4 -77 5 -14 1 -24 -2 -22 -6z"/>
<path d="M2108 1203 c7 -3 16 -2 19 1 4 3 -2 6 -13 5 -11 0 -14 -3 -6 -6z"/>
<path d="M1938 1193 c7 -3 16 -2 19 1 4 3 -2 6 -13 5 -11 0 -14 -3 -6 -6z"/>
<path d="M2935 1189 c-4 -6 -5 -12 -2 -15 2 -3 7 2 10 11 7 17 1 20 -8 4z"/>
<path d="M1858 1183 c6 -2 18 -2 25 0 6 3 1 5 -13 5 -14 0 -19 -2 -12 -5z"/>
<path d="M615 1170 c-3 -5 -2 -18 4 -27 7 -14 9 -12 8 10 -2 30 -3 31 -12 17z"/>
<path d="M1406 1165 c-9 -26 -7 -32 5 -12 6 10 9 21 6 23 -2 3 -7 -2 -11 -11z"/>
<path d="M1748 1173 c6 -2 18 -2 25 0 6 3 1 5 -13 5 -14 0 -19 -2 -12 -5z"/>
<path d="M80 1156 c0 -24 17 -28 23 -6 3 13 0 20 -9 20 -8 0 -14 -6 -14 -14z"/>
<path d="M360 1153 c0 -17 -7 -23 -32 -26 l-33 -4 37 -1 c20 -1 38 3 40 8 2 6
37 14 78 17 50 5 67 9 50 13 -14 3 -47 2 -73 -4 -39 -7 -51 -6 -58 5 -7 11 -9
9 -9 -8z"/>
<path d="M54 1140 c4 -14 8 -33 7 -43 0 -9 4 -15 10 -12 15 10 10 45 -8 63
-16 16 -16 15 -9 -8z"/>
<path d="M1327 1105 c-15 -30 -25 -55 -22 -55 7 0 57 101 53 106 -2 2 -16 -21
-31 -51z"/>
<path d="M1528 1153 c6 -2 18 -2 25 0 6 3 1 5 -13 5 -14 0 -19 -2 -12 -5z"/>
<path d="M650 1111 c0 -5 5 -13 10 -16 6 -3 10 -2 10 4 0 5 -4 13 -10 16 -5 3
-10 2 -10 -4z"/>
<path d="M477 1083 c-4 -3 -24 -9 -44 -13 l-38 -8 35 -1 c35 -1 69 13 59 23
-3 4 -9 3 -12 -1z"/>
<path d="M1436 1078 c-3 -7 -7 -41 -11 -76 -3 -35 -8 -69 -11 -76 -3 -7 1 -13
8 -13 9 0 14 22 16 76 1 41 7 78 13 82 8 5 8 8 0 13 -6 4 -13 1 -15 -6z"/>
<path d="M16 1071 c31 -14 114 -21 114 -10 0 5 -12 9 -27 9 -16 0 -46 3 -68 5
-30 4 -35 3 -19 -4z"/>
<path d="M1256 984 c-10 -37 -2 -39 11 -4 6 17 8 30 3 30 -4 0 -11 -12 -14
-26z"/>
<path d="M178 973 c7 -3 16 -2 19 1 4 3 -2 6 -13 5 -11 0 -14 -3 -6 -6z"/>
<path d="M2895 970 c-3 -5 -1 -10 4 -10 6 0 11 5 11 10 0 6 -2 10 -4 10 -3 0
-8 -4 -11 -10z"/>
<path d="M373 943 c9 -2 23 -2 30 0 6 3 -1 5 -18 5 -16 0 -22 -2 -12 -5z"/>
<path d="M1286 884 c-4 -9 -4 -19 -1 -22 2 -3 7 3 11 12 4 9 4 19 1 22 -2 3
-7 -3 -11 -12z"/>
<path d="M1406 876 c-3 -11 -1 -25 4 -30 9 -9 15 4 11 27 0 4 4 7 9 7 6 0 10
4 10 8 0 18 -29 8 -34 -12z"/>
<path d="M1450 815 c0 -8 4 -15 10 -15 5 0 7 7 4 15 -4 8 -8 15 -10 15 -2 0
-4 -7 -4 -15z"/>
<path d="M1060 758 c-14 -5 -57 -10 -96 -11 -53 -2 -70 -5 -67 -14 7 -17 55
-16 148 3 63 13 82 14 107 3 28 -12 29 -13 12 -26 -25 -18 -42 -16 -47 5 -4
13 -5 11 -6 -5 0 -13 -7 -23 -14 -23 -8 0 -22 -9 -32 -20 -17 -19 -16 -21 44
-78 56 -54 77 -92 50 -92 -13 0 -64 39 -64 48 0 4 -8 18 -18 32 -12 17 -17 20
-17 8 0 -9 7 -18 15 -22 8 -3 12 -11 9 -19 -3 -8 3 -20 12 -28 9 -8 18 -12 18
-11 1 2 17 -10 36 -27 19 -17 51 -44 70 -60 27 -23 32 -32 23 -42 -9 -9 -15
-6 -24 14 -6 14 -18 28 -26 31 -10 4 -7 -4 6 -23 24 -33 26 -42 10 -39 -6 2
-13 -2 -16 -9 -3 -10 15 -11 37 -3 3 1 8 2 12 1 4 0 12 8 18 19 13 24 2 48
-30 70 -39 26 -48 39 -43 60 7 25 -15 80 -31 80 -14 0 -60 50 -61 65 -1 6 -6
9 -13 8 -24 -5 -11 8 21 22 24 10 36 11 47 2 8 -6 12 -7 8 -3 -5 5 1 15 12 23
25 18 24 62 -2 55 -10 -2 -18 0 -18 5 0 12 -59 13 -90 1z"/>
<path d="M2363 763 c9 -2 23 -2 30 0 6 3 -1 5 -18 5 -16 0 -22 -2 -12 -5z"/>
<path d="M1442 710 c0 -19 2 -27 5 -17 2 9 2 25 0 35 -3 9 -5 1 -5 -18z"/>
<path d="M1658 733 c7 -3 16 -2 19 1 4 3 -2 6 -13 5 -11 0 -14 -3 -6 -6z"/>
<path d="M2138 723 c7 -3 16 -2 19 1 4 3 -2 6 -13 5 -11 0 -14 -3 -6 -6z"/>
<path d="M753 665 c0 -22 2 -30 4 -17 2 12 2 30 0 40 -3 9 -5 -1 -4 -23z"/>
<path d="M1020 696 c0 -2 7 -9 15 -16 9 -7 15 -8 15 -2 0 5 -7 12 -15 16 -8 3
-15 4 -15 2z"/>
<path d="M1941 686 c2 -2 24 -6 49 -9 30 -4 38 -3 25 3 -19 8 -83 14 -74 6z"/>
<path d="M2978 673 c7 -3 16 -2 19 1 4 3 -2 6 -13 5 -11 0 -14 -3 -6 -6z"/>
<path d="M2173 643 c9 -2 25 -2 35 0 9 3 1 5 -18 5 -19 0 -27 -2 -17 -5z"/>
<path d="M2955 640 c-20 -9 -20 -9 0 -9 11 0 27 4 35 9 13 9 13 10 0 9 -8 0
-24 -4 -35 -9z"/>
<path d="M1015 630 c-3 -5 -1 -10 4 -10 6 0 11 5 11 10 0 6 -2 10 -4 10 -3 0
-8 -4 -11 -10z"/>
<path d="M2243 633 c9 -2 25 -2 35 0 9 3 1 5 -18 5 -19 0 -27 -2 -17 -5z"/>
<path d="M2308 623 c6 -2 18 -2 25 0 6 3 1 5 -13 5 -14 0 -19 -2 -12 -5z"/>
<path d="M2908 623 c7 -3 16 -2 19 1 4 3 -2 6 -13 5 -11 0 -14 -3 -6 -6z"/>
<path d="M2868 613 c7 -3 16 -2 19 1 4 3 -2 6 -13 5 -11 0 -14 -3 -6 -6z"/>
<path d="M115 600 c3 -5 8 -10 11 -10 2 0 4 5 4 10 0 6 -5 10 -11 10 -5 0 -7
-4 -4 -10z"/>
<path d="M2423 603 c9 -2 23 -2 30 0 6 3 -1 5 -18 5 -16 0 -22 -2 -12 -5z"/>
<path d="M2805 600 c-13 -5 -14 -9 -5 -9 8 0 24 4 35 9 13 5 14 9 5 9 -8 0
-24 -4 -35 -9z"/>
<path d="M1023 581 c0 -11 5 -18 9 -15 4 3 5 11 1 19 -7 21 -12 19 -10 -4z"/>
<path d="M2488 593 c6 -2 18 -2 25 0 6 3 1 5 -13 5 -14 0 -19 -2 -12 -5z"/>
<path d="M200 586 c0 -2 7 -7 16 -10 8 -3 12 -2 9 4 -6 10 -25 14 -25 6z"/>
<path d="M2682 568 c-40 -11 -71 -22 -69 -25 4 -4 158 36 166 43 9 8 -27 2
-97 -18z"/>
<path d="M1433 551 c0 -14 1 -18 4 -8 2 9 9 15 14 12 5 -4 9 -2 9 3 0 6 -6 12
-13 15 -8 3 -13 -4 -14 -22z"/>
<path d="M2238 563 c7 -3 16 -2 19 1 4 3 -2 6 -13 5 -11 0 -14 -3 -6 -6z"/>
<path d="M328 553 c7 -3 16 -2 19 1 4 3 -2 6 -13 5 -11 0 -14 -3 -6 -6z"/>
<path d="M1010 531 c0 -6 3 -11 8 -11 4 0 23 -14 42 -31 37 -33 30 -50 -16
-41 -30 5 -30 10 -1 22 20 9 20 10 2 9 -37 -2 -45 1 -45 16 0 9 -9 15 -22 14
-22 0 -22 -1 -3 -9 11 -5 16 -9 12 -9 -4 -1 6 -14 22 -30 16 -16 27 -32 24
-35 -15 -15 -43 -2 -85 39 -25 24 -48 42 -51 38 -3 -3 0 -12 8 -19 7 -8 15
-17 17 -21 1 -5 18 -21 37 -36 27 -23 41 -27 64 -23 18 4 36 1 45 -6 11 -9 10
-4 -3 16 l-19 29 22 -12 c14 -8 22 -8 22 -1 0 5 7 10 15 10 10 0 12 -6 8 -17
-6 -16 -5 -16 10 -4 15 12 17 12 11 -4 -5 -12 -4 -16 4 -11 6 4 17 -5 25 -20
9 -16 17 -23 21 -16 8 14 -50 97 -69 97 -7 0 -28 14 -46 30 -44 40 -59 49 -59
36z"/>
<path d="M1668 533 c6 -2 18 -2 25 0 6 3 1 5 -13 5 -14 0 -19 -2 -12 -5z"/>
<path d="M2578 533 c7 -3 16 -2 19 1 4 3 -2 6 -13 5 -11 0 -14 -3 -6 -6z"/>
<path d="M438 523 c7 -3 16 -2 19 1 4 3 -2 6 -13 5 -11 0 -14 -3 -6 -6z"/>
<path d="M790 510 c0 -13 7 -20 19 -20 24 0 52 -31 33 -37 -6 -3 -9 -10 -6
-15 5 -7 2 -8 -5 -3 -7 4 -11 16 -8 26 3 11 1 19 -5 19 -5 0 -8 -12 -6 -27 2
-21 9 -29 27 -31 13 -2 28 1 35 8 8 8 6 9 -8 4 -16 -6 -18 -4 -13 10 10 25
-10 56 -36 56 -16 0 -18 3 -9 9 11 7 11 9 -2 14 -11 5 -16 1 -16 -13z"/>
<path d="M2462 508 c-40 -11 -71 -22 -69 -25 4 -4 158 36 166 43 9 8 -27 2
-97 -18z"/>
<path d="M2898 523 c7 -3 16 -2 19 1 4 3 -2 6 -13 5 -11 0 -14 -3 -6 -6z"/>
<path d="M2958 513 c6 -2 18 -2 25 0 6 3 1 5 -13 5 -14 0 -19 -2 -12 -5z"/>
<path d="M792 455 c0 -16 2 -22 5 -12 2 9 2 23 0 30 -3 6 -5 -1 -5 -18z"/>
<path d="M2325 470 c-25 -11 1 -11 35 0 20 6 21 8 5 8 -11 0 -29 -3 -40 -8z"/>
<path d="M2255 450 c-13 -5 -14 -9 -5 -9 8 0 24 4 35 9 13 5 14 9 5 9 -8 0
-24 -4 -35 -9z"/>
<path d="M198 433 c7 -3 16 -2 19 1 4 3 -2 6 -13 5 -11 0 -14 -3 -6 -6z"/>
<path d="M2058 397 c-82 -22 -146 -42 -144 -45 4 -4 308 77 315 84 10 9 -32 0
-171 -39z"/>
<path d="M2620 410 c-9 -6 -10 -10 -3 -10 6 0 15 5 18 10 8 12 4 12 -15 0z"/>
<path d="M1725 305 c-82 -24 -144 -44 -137 -44 14 -1 304 78 311 85 11 10 -35
-1 -174 -41z"/>
<path d="M2875 330 c-13 -6 -15 -9 -5 -9 8 0 22 4 30 9 18 12 2 12 -25 0z"/>
<path d="M2735 280 c-13 -6 -15 -9 -5 -9 8 0 22 4 30 9 18 12 2 12 -25 0z"/>
<path d="M873 230 c0 -25 2 -35 4 -22 2 12 2 32 0 45 -2 12 -4 2 -4 -23z"/>
<path d="M892 250 c0 -14 2 -19 5 -12 2 6 2 18 0 25 -3 6 -5 1 -5 -13z"/>
<path d="M2105 250 c-3 -6 1 -7 9 -4 18 7 21 14 7 14 -6 0 -13 -4 -16 -10z"/>
<path d="M2650 250 c-8 -5 -10 -10 -5 -10 6 0 17 5 25 10 8 5 11 10 5 10 -5 0
-17 -5 -25 -10z"/>
<path d="M198 203 c7 -3 16 -2 19 1 4 3 -2 6 -13 5 -11 0 -14 -3 -6 -6z"/>
<path d="M896 197 c3 -10 9 -15 12 -12 3 3 0 11 -7 18 -10 9 -11 8 -5 -6z"/>
<path d="M1910 190 c-23 -7 -23 -8 -3 -9 12 -1 25 4 28 9 3 6 5 10 3 9 -2 -1
-14 -5 -28 -9z"/>
<path d="M835 157 c2 -20 0 -35 -5 -32 -4 3 -6 -5 -2 -17 5 -21 5 -21 13 -1 4
11 3 35 -2 54 l-9 34 5 -38z"/>
<path d="M1820 160 c-9 -6 -10 -10 -3 -10 6 0 15 5 18 10 8 12 4 12 -15 0z"/>
<path d="M2370 150 c-8 -5 -10 -10 -5 -10 6 0 17 5 25 10 8 5 11 10 5 10 -5 0
-17 -5 -25 -10z"/>
<path d="M338 133 c7 -3 16 -2 19 1 4 3 -2 6 -13 5 -11 0 -14 -3 -6 -6z"/>
<path d="M1738 133 c7 -3 16 -2 19 1 4 3 -2 6 -13 5 -11 0 -14 -3 -6 -6z"/>
<path d="M2900 125 c-14 -8 -20 -14 -15 -14 6 0 21 6 35 14 14 8 21 14 15 14
-5 0 -21 -6 -35 -14z"/>
<path d="M1685 120 c-16 -7 -17 -9 -3 -9 9 -1 20 4 23 9 7 11 7 11 -20 0z"/>
<path d="M2290 120 c-8 -5 -10 -10 -5 -10 6 0 17 5 25 10 8 5 11 10 5 10 -5 0
-17 -5 -25 -10z"/>
<path d="M440 110 c8 -5 20 -10 25 -10 6 0 3 5 -5 10 -8 5 -19 10 -25 10 -5 0
-3 -5 5 -10z"/>
<path d="M2236 101 c-4 -5 3 -7 14 -4 23 6 26 13 6 13 -8 0 -17 -4 -20 -9z"/>
<path d="M2805 85 c-27 -13 -45 -23 -40 -24 6 0 33 11 60 24 28 13 46 23 40
24 -5 0 -32 -11 -60 -24z"/>
<path d="M358 93 c7 -3 16 -2 19 1 4 3 -2 6 -13 5 -11 0 -14 -3 -6 -6z"/>
<path d="M1608 93 c7 -3 16 -2 19 1 4 3 -2 6 -13 5 -11 0 -14 -3 -6 -6z"/>
<path d="M2198 83 c7 -3 16 -2 19 1 4 3 -2 6 -13 5 -11 0 -14 -3 -6 -6z"/>
<path d="M1171 64 c0 -11 3 -14 6 -6 3 7 2 16 -1 19 -3 4 -6 -2 -5 -13z"/>
<path d="M2095 50 c-16 -7 -17 -9 -3 -9 9 -1 20 4 23 9 7 11 7 11 -20 0z"/>
<path d="M2710 45 c-14 -8 -20 -14 -15 -14 6 0 21 6 35 14 14 8 21 14 15 14
-5 0 -21 -6 -35 -14z"/>
<path d="M2650 20 c-8 -5 -10 -10 -5 -10 6 0 17 5 25 10 8 5 11 10 5 10 -5 0
-17 -5 -25 -10z"/>
<path d="M2008 13 c7 -3 16 -2 19 1 4 3 -2 6 -13 5 -11 0 -14 -3 -6 -6z"/>
</g>
</svg>
